<svg id="brain" xmlns="http://www.w3.org/2000/svg" viewBox="0 0 64 64">
  <defs>
    <style>
      .cls-1 {
        fill: #ff8d8d;
      }

      .cls-2 {
        fill: #fd4a4a;
      }

      .cls-3 {
        fill: #009640;
      }
    </style>
  </defs>
  <g id="Group_9" data-name="Group 9" transform="translate(9.5 9.5)">
    <path id="Path_17" data-name="Path 17" class="cls-1" d="M98.5,99.734V81.52A5.682,5.682,0,1,0,87.15,82,6.577,6.577,0,0,0,80.9,90.557a7.416,7.416,0,0,0-.581,13.716c-4.478,4.785.271,12.5,6.831,10.688a5.681,5.681,0,1,0,11.349.519V99.734Z" transform="translate(-76.002 -76)"/>
    <path id="Path_18" data-name="Path 18" class="cls-2" d="M261.689,76A5.605,5.605,0,0,0,256,81.52v33.96a5.681,5.681,0,1,0,11.348-.519c6.56,1.807,11.31-5.9,6.831-10.688a7.715,7.715,0,0,0,2.8-2.272,8.123,8.123,0,1,1-3.112-14.288A6.671,6.671,0,0,0,267.354,82,5.588,5.588,0,0,0,261.689,76Z" transform="translate(-233.502 -76)"/>
    <path id="Path_19" data-name="Path 19" class="cls-3" d="M326.848,184.146a8.125,8.125,0,1,0-8.125-8.125A8.141,8.141,0,0,0,326.848,184.146Z" transform="translate(-288.383 -156.409)"/>
  </g>
  <path id="Path_20" data-name="Path 20" d="M146.4,275.864l-.065.014a1.26,1.26,0,1,0,.065-.014Z" transform="translate(-127.201 -241.36)"/>
  <path id="Path_21" data-name="Path 21" d="M247.252,5a1.25,1.25,0,0,0,1.25-1.25V1.25a1.25,1.25,0,0,0-2.5,0v2.5A1.25,1.25,0,0,0,247.252,5Z" transform="translate(-215.252)"/>
  <path id="Path_22" data-name="Path 22" d="M124.416,37a1.25,1.25,0,0,0,2.165-1.25l-1.25-2.165a1.25,1.25,0,1,0-2.165,1.25Z" transform="translate(-107.624 -28.836)"/>
  <path id="Path_23" data-name="Path 23" d="M33.58,125.331l2.165,1.25A1.25,1.25,0,0,0,37,124.416l-2.165-1.25a1.25,1.25,0,1,0-1.25,2.165Z" transform="translate(-28.836 -107.624)"/>
  <path id="Path_24" data-name="Path 24" d="M5,247.25A1.25,1.25,0,0,0,3.75,246H1.25a1.25,1.25,0,1,0,0,2.5h2.5A1.25,1.25,0,0,0,5,247.25Z" transform="translate(0 -215.25)"/>
  <path id="Path_25" data-name="Path 25" d="M35.746,359.169l-2.165,1.25a1.25,1.25,0,1,0,1.25,2.165L37,361.334a1.25,1.25,0,1,0-1.25-2.165Z" transform="translate(-28.836 -314.126)"/>
  <path id="Path_26" data-name="Path 26" d="M126.123,441.889a1.25,1.25,0,0,0-1.707.457l-1.25,2.165a1.25,1.25,0,1,0,2.165,1.25l1.25-2.165A1.25,1.25,0,0,0,126.123,441.889Z" transform="translate(-107.624 -386.507)"/>
  <path id="Path_27" data-name="Path 27" d="M247.252,472a1.25,1.25,0,0,0-1.25,1.25v2.5a1.25,1.25,0,0,0,2.5,0v-2.5A1.25,1.25,0,0,0,247.252,472Z" transform="translate(-215.252 -413.002)"/>
  <path id="Path_28" data-name="Path 28" d="M361.333,442.347a1.25,1.25,0,0,0-2.165,1.25l1.25,2.165a1.25,1.25,0,0,0,2.165-1.25Z" transform="translate(-314.125 -386.507)"/>
  <path id="Path_29" data-name="Path 29" d="M445.763,360.418l-2.165-1.25a1.25,1.25,0,0,0-1.25,2.165l2.165,1.25a1.25,1.25,0,0,0,1.25-2.165Z" transform="translate(-386.508 -314.126)"/>
  <path id="Path_30" data-name="Path 30" d="M475.752,246h-2.5a1.25,1.25,0,1,0,0,2.5h2.5a1.25,1.25,0,0,0,0-2.5Z" transform="translate(-413.002 -215.25)"/>
  <path id="Path_31" data-name="Path 31" d="M442.974,126.749a1.244,1.244,0,0,0,.624-.168l2.165-1.25a1.25,1.25,0,0,0-1.25-2.165l-2.165,1.25a1.25,1.25,0,0,0,.626,2.333Z" transform="translate(-386.507 -107.624)"/>
  <path id="Path_32" data-name="Path 32" d="M359.625,37.454A1.249,1.249,0,0,0,361.333,37l1.25-2.165a1.25,1.25,0,1,0-2.165-1.25l-1.25,2.165A1.25,1.25,0,0,0,359.625,37.454Z" transform="translate(-314.125 -28.837)"/>
  <path id="Path_33" data-name="Path 33" d="M115.093,86.862a9.389,9.389,0,0,0-6.384-8.883,7.929,7.929,0,0,0-6.362-5.858,6.628,6.628,0,0,0-1.734-3.862,7.037,7.037,0,0,0-10.859.641,7.037,7.037,0,0,0-10.859-.641,6.63,6.63,0,0,0-1.734,3.859,7.9,7.9,0,0,0-5.175,3.264,7.589,7.589,0,0,0-1.3,5.718,8.642,8.642,0,0,0-.971,14.783,7.388,7.388,0,0,0-.5,7.03,7.93,7.93,0,0,0,7.251,4.817q.366,0,.736-.034a6.73,6.73,0,0,0,1.675,3.526,7.037,7.037,0,0,0,10.875-.623,7.037,7.037,0,0,0,10.875.623A6.727,6.727,0,0,0,102.3,107.7a7.8,7.8,0,0,0,7.489-3.817,7.49,7.49,0,0,0-.306-8.436A9.387,9.387,0,0,0,115.093,86.862ZM84.066,111a4.51,4.51,0,0,1-3.338-1.458,4.157,4.157,0,0,1-1.08-2.426,5.34,5.34,0,0,0,3.273-3.573c.367-.966.551-1.451,1.6-1.731a1.25,1.25,0,0,0-.647-2.415,4.508,4.508,0,0,0-3.287,3.258,3.026,3.026,0,0,1-2.5,2.349l0,0h0a6.056,6.056,0,0,1-1.605.224,5.431,5.431,0,0,1-4.958-3.312,5,5,0,0,1,.977-5.541,1.25,1.25,0,0,0-.374-1.982,6.167,6.167,0,0,1,.488-11.42,1.25,1.25,0,0,0,.74-1.564,5.1,5.1,0,0,1,.69-4.591A5.467,5.467,0,0,1,78.419,74.5a3.049,3.049,0,0,1,3.245,2.027c.591,1.069,1.4,2.533,3.575,2.533a1.25,1.25,0,1,0,0-2.5c-.644,0-.813-.2-1.387-1.242A5.38,5.38,0,0,0,79.684,72.1a4.172,4.172,0,0,1,1.054-2.151A4.511,4.511,0,0,1,84.066,68.5,4.361,4.361,0,0,1,88.5,72.77V89.677c-2.935-.285-3.668-1.627-4.567-3.277-.88-1.615-1.974-3.624-5.264-3.971a1.25,1.25,0,1,0-.263,2.486c1.985.21,2.521,1.193,3.332,2.681a15.283,15.283,0,0,0,1,1.665,10.664,10.664,0,0,1-2.779,1.921,1.25,1.25,0,1,0,1.11,2.24,12.927,12.927,0,0,0,3.469-2.429A8.47,8.47,0,0,0,88.5,92.184V106.73A4.361,4.361,0,0,1,84.066,111ZM107.02,96.377a5.013,5.013,0,0,1,.632,6.209,5.422,5.422,0,0,1-6.219,2.42h0l0,0a3.026,3.026,0,0,1-2.5-2.349A4.507,4.507,0,0,0,95.634,99.4a1.25,1.25,0,0,0-.647,2.415c1.046.28,1.23.765,1.6,1.731a5.339,5.339,0,0,0,3.273,3.573,4.155,4.155,0,0,1-1.08,2.426A4.51,4.51,0,0,1,95.44,111,4.361,4.361,0,0,1,91,106.73V97.789c0-2.253,1.185-3.373,2.294-3.67a3.314,3.314,0,0,1,3.67,1.826,1.25,1.25,0,1,0,2.165-1.25A5.813,5.813,0,0,0,92.65,91.7,5.214,5.214,0,0,0,91,92.471V72.77A4.361,4.361,0,0,1,95.44,68.5a4.511,4.511,0,0,1,3.327,1.446A4.174,4.174,0,0,1,99.821,72.1a5.38,5.38,0,0,0-4.167,3.223c-.574,1.039-.742,1.242-1.387,1.242a1.25,1.25,0,0,0,0,2.5c2.175,0,2.984-1.464,3.575-2.533a3.049,3.049,0,0,1,3.246-2.027,5.506,5.506,0,0,1,4.791,2.989c-.054,0-.107,0-.161,0a9.375,9.375,0,1,0,1.142,18.678A1.245,1.245,0,0,0,107.02,96.377Zm-1.3-2.64a6.875,6.875,0,1,1,6.875-6.875A6.883,6.883,0,0,1,105.718,93.737Z" transform="translate(-57.753 -57.75)"/>
  <path id="Path_34" data-name="Path 34" d="M359.566,205.114a1.25,1.25,0,0,0-1.762.149l-2.755,3.264-1.186-.91a1.25,1.25,0,1,0-1.522,1.983l2.133,1.637a1.25,1.25,0,0,0,1.716-.186l3.525-4.176A1.25,1.25,0,0,0,359.566,205.114Z" transform="translate(-307.871 -179.217)"/>
</svg>
