<?xml version="1.0" encoding="utf-8"?>
<!-- Generator: Adobe Illustrator 22.1.0, SVG Export Plug-In . SVG Version: 6.00 Build 0)  -->
<svg version="1.1" id="Warstwa_1" xmlns="http://www.w3.org/2000/svg" xmlns:xlink="http://www.w3.org/1999/xlink" x="0px" y="0px"
	 viewBox="0 0 181.4 255.1" style="enable-background:new 0 0 181.4 255.1;" xml:space="preserve">
<style type="text/css">
	.st0{fill:#FFFFFF;}
	.st1{fill:#E30613;}
	.st2{fill:#EDEDED;}
</style>
<g>
	<rect x="-8.5" y="-8.5" class="st0" width="198.4" height="272.1"/>
</g>
<g>
	<polygon class="st1" points="66.9,140.7 78.8,120.1 90.7,99.4 102.6,120.1 114.6,140.7 95.8,140.7 95.8,172.3 128.8,148.8 
		109.8,115.8 90.7,82.8 71.7,115.8 52.6,148.8 85.6,172.3 85.6,140.7 	"/>
</g>
<path class="st2" d="M-8.5-8.5V93.7c7.9,2.5,16.2,3.9,24.9,3.9c44.8,0,81.2-36.3,81.2-81.2c0-8.7-1.4-17.1-3.9-25H-8.5z"/>
<g>
	<path class="st1" d="M30.4,76.7c-14.4,0-21.9-4.6-21.9-14v-6.5H9c4.2,4,10.5,5.7,19.1,5.7c8.8,0,12-3.3,12-8c0-4.1-2.6-7-13.7-7
		c-5.7,0-12.1,0.6-16.8,1.4V22.8c0-9.5,3.2-14.3,12.7-14.3h33.4V14c0,5.7-3.9,9.3-11.1,9.3H26.8v10.2c2.9-0.2,4.2-0.2,6.2-0.2
		c13.2,0,24.8,6.9,24.8,19.9C57.8,68.2,46.7,76.7,30.4,76.7z"/>
</g>
<g>
	<path class="st1" d="M137.4,246.2c-4.1,0-8.1-1.5-8.1-5.6v-2.8h0.2c1.6,1.6,4.6,2.6,7.8,2.6c3.1,0,4.2-1.1,4.2-2.4
		c0-2-0.9-2.8-4.7-3.1c-1.9-0.1-3.1-0.9-3.1-2.7v-1.6l3.6-0.3c3.9-0.3,4.1-1.4,4.1-2.8c0-1.6-1.1-2.8-4.9-2.8c-2.8,0-5.3,1-6.9,2.7
		h-0.2v-2.9c0-2.7,2.8-5.5,9.1-5.5c5.2,0,9.7,2.9,9.7,7.7c0,3-1.8,4.9-3.9,5.8c2,0.6,4,2.7,4,5.2
		C148.3,243.2,144.3,246.2,137.4,246.2z"/>
	<path class="st1" d="M162.1,246.2c-5.3,0-10.5-4.3-10.5-13.2c0-9.9,4.2-14.1,10.9-14.1c5.9,0,10.3,3.6,10.3,13.2
		C172.9,240.9,170.1,246.2,162.1,246.2z M162.3,240.2c2.4,0,3.4-1.4,3.4-7.8c0-5.9-1.2-7.5-3.4-7.5c-2.1,0-3.4,1.4-3.4,7.5
		C158.8,238.5,160.3,240.2,162.3,240.2z"/>
</g>
</svg>
