<svg xmlns="http://www.w3.org/2000/svg" viewBox="0 0 199.4 273.1">
  <defs>
    <style>
      .cls-1 {
        fill: #fff;
      }

      .cls-1, .cls-2 {
        stroke: #dadada;
      }

      .cls-2 {
        fill: #009fe3;
      }
    </style>
  </defs>
  <g id="card-blue" transform="translate(0.5 0.5)">
    <g id="background">
      <rect id="Rectangle_17" data-name="Rectangle 17" class="cls-1" width="198.4" height="272.1" rx="15"/>
    </g>
    <g id="arrow">
      <path id="Path_85" data-name="Path 85" class="cls-2" d="M86.1,112.2l20.6,11.9,20.7,12L106.7,148,86.1,159.9V141.1H54.5L78,174.2l33-19.1,33-19L111,117,78,98,54.5,131H86.1Z"/>
    </g>
    <g id="value">
      <path id="Path_86" data-name="Path 86" class="cls-2" d="M46.1,83.7c-5.5,0-9.8-3.8-9.8-10.1V35.3l-6.1,1.9a14.382,14.382,0,0,1-4,.6c-3.9,0-6.9-1.8-7.4-5l-1.2-6.4,17.5-7.3a26.533,26.533,0,0,1,10.7-2c4.3,0,8.8,3.1,8.8,8.3V83.8H46.1Z"/>
    </g>
    <g id="start-code">
      <path id="Path_87" data-name="Path 87" class="cls-2" d="M177.5,255.1a3.678,3.678,0,0,1-3.8-4v-15l-2.4.8a4.4,4.4,0,0,1-1.6.2c-1.5,0-2.7-.7-2.9-2l-.5-2.5,6.9-2.9a10.481,10.481,0,0,1,4.2-.8,3.283,3.283,0,0,1,3.4,3.3v22.9Z"/>
    </g>
  </g>
</svg>
