<svg xmlns="http://www.w3.org/2000/svg" viewBox="0 0 199.4 273.1">
  <defs>
    <style>
      .cls-1 {
        fill: #fff;
      }

      .cls-1, .cls-2 {
        stroke: #dadada;
      }

      .cls-2 {
        fill: #009640;
      }
    </style>
  </defs>
  <g id="card-green" transform="translate(0.5 0.5)">
    <g id="background">
      <rect id="Rectangle_15" data-name="Rectangle 15" class="cls-1" width="198.4" height="272.1" rx="15"/>
    </g>
    <g id="arrow">
      <path id="Path_77" data-name="Path 77" class="cls-2" d="M112.4,159.9,91.7,148,71.1,136.1l20.6-12,20.7-11.9V131H144L120.5,98l-33,19-33,19.1,33,19,33,19.1L144,141.1H112.4Z"/>
    </g>
    <g id="value">
      <path id="Path_78" data-name="Path 78" class="cls-2" d="M38.2,86.9c-10.5,0-20.8-3.8-20.8-14.3V65.5h.5c4.1,4.2,11.8,6.6,20,6.6,8,0,10.7-2.7,10.7-6.1,0-5.2-2.2-7.2-12.1-7.9-4.9-.3-8-2.4-8-7V47l9.2-.8c10-.9,10.5-3.7,10.5-7.1,0-4-2.8-7.2-12.4-7.2-7.1,0-13.4,2.5-17.7,6.8h-.5V31.3c0-6.9,7.1-14.1,23.3-14.1,13.2,0,24.6,7.3,24.6,19.7,0,7.5-4.6,12.4-9.9,14.9,5,1.4,10.2,7,10.2,13.3C66,79.3,55.8,86.9,38.2,86.9Z"/>
    </g>
    <g id="start-code">
      <path id="Path_79" data-name="Path 79" class="cls-2" d="M155.3,249.3h-1v5.8h-3.4c-2.4,0-3.7-.9-3.7-3.5v-2.3h-7.1c-2,0-4-1.3-4-3a7.318,7.318,0,0,1,1-3.9c2.7-5,8.1-11.9,10.9-13.7h2.3a3.964,3.964,0,0,1,4.1,4.2v10.5h4v2.8A3.116,3.116,0,0,1,155.3,249.3Zm-8.1-12.7a45.336,45.336,0,0,0-4.4,6.9h4.4Z"/>
      <path id="Path_80" data-name="Path 80" class="cls-2" d="M176.5,255.1H163.8a3.218,3.218,0,0,1-3.5-3.1c0-2.4,1.8-4.5,4.6-6.8l6-4.7a3.859,3.859,0,0,0,1.7-3.2c0-2-1.3-3.1-3.8-3.1-3.6,0-6.1.8-7.9,3.1h-.2V235c0-3.5,2.5-6.7,9.7-6.7,6,0,9.5,4,9.5,8.2,0,3.8-1.3,5.3-5.9,8.5l-4,2.8c-.5.4-1.3,1.1-1.6,1.4h12.1v2.5C180.5,253.8,179.3,255.1,176.5,255.1Z"/>
    </g>
  </g>
</svg>
