<svg xmlns="http://www.w3.org/2000/svg" viewBox="0 0 199.4 273.1">
  <defs>
    <style>
      .cls-1 {
        fill: #fff;
        stroke: #dadada;
      }

      .cls-2 {
        fill: #e30613;
      }
    </style>
  </defs>
  <g id="card-red" transform="translate(0.5 0.5)">
    <g id="background">
      <rect id="Rectangle_14" data-name="Rectangle 14" class="cls-1" width="198.4" height="272.1" rx="15"/>
    </g>
    <g id="arrow">
      <path id="Path_73" data-name="Path 73" class="cls-2" d="M75.4,149.2l11.9-20.6,11.9-20.7,11.9,20.7,12,20.6H104.3v31.6l33-23.5-19-33-19.1-33-19,33-19.1,33,33.1,23.5V149.2Z"/>
    </g>
    <g id="value">
      <path id="Path_74" data-name="Path 74" class="cls-2" d="M38.9,85.2c-14.4,0-21.9-4.6-21.9-14V64.7h.5c4.2,4,10.5,5.7,19.1,5.7,8.8,0,12-3.3,12-8,0-4.1-2.6-7-13.7-7a107.6,107.6,0,0,0-16.8,1.4V31.3c0-9.5,3.2-14.3,12.7-14.3H64.2v5.5c0,5.7-3.9,9.3-11.1,9.3H35.3V42c2.9-.2,4.2-.2,6.2-.2,13.2,0,24.8,6.9,24.8,19.9C66.3,76.7,55.2,85.2,38.9,85.2Z"/>
    </g>
    <g id="start-code">
      <path id="Path_75" data-name="Path 75" class="cls-2" d="M145.9,254.7c-4.1,0-8.1-1.5-8.1-5.6v-2.8h.2c1.6,1.6,4.6,2.6,7.8,2.6,3.1,0,4.2-1.1,4.2-2.4,0-2-.9-2.8-4.7-3.1-1.9-.1-3.1-.9-3.1-2.7v-1.6l3.6-.3c3.9-.3,4.1-1.4,4.1-2.8,0-1.6-1.1-2.8-4.9-2.8a9.415,9.415,0,0,0-6.9,2.7h-.2V233c0-2.7,2.8-5.5,9.1-5.5,5.2,0,9.7,2.9,9.7,7.7a6.116,6.116,0,0,1-3.9,5.8,5.739,5.739,0,0,1,4,5.2C156.8,251.7,152.8,254.7,145.9,254.7Z"/>
      <path id="Path_76" data-name="Path 76" class="cls-2" d="M170.6,254.7c-5.3,0-10.5-4.3-10.5-13.2,0-9.9,4.2-14.1,10.9-14.1,5.9,0,10.3,3.6,10.3,13.2C181.4,249.4,178.6,254.7,170.6,254.7Zm.2-6c2.4,0,3.4-1.4,3.4-7.8,0-5.9-1.2-7.5-3.4-7.5-2.1,0-3.4,1.4-3.4,7.5C167.3,247,168.8,248.7,170.8,248.7Z"/>
    </g>
  </g>
</svg>
