<?xml version="1.0" encoding="utf-8"?>
<!-- Generator: Adobe Illustrator 22.1.0, SVG Export Plug-In . SVG Version: 6.00 Build 0)  -->
<svg version="1.1" id="Warstwa_1" xmlns="http://www.w3.org/2000/svg" xmlns:xlink="http://www.w3.org/1999/xlink" x="0px" y="0px"
	 viewBox="0 0 181.4 255.1" style="enable-background:new 0 0 181.4 255.1;" xml:space="preserve">
<style type="text/css">
	.st0{fill:#FFFFFF;}
	.st1{fill:#EDEDED;}
	.st2{fill:#009FE3;}
</style>
<g>
	<rect x="-8.5" y="-8.3" class="st0" width="198.4" height="272.1"/>
</g>
<path class="st1" d="M-8.5-8.5V93.7c7.9,2.5,16.2,3.9,24.9,3.9c44.8,0,81.2-36.3,81.2-81.2c0-8.7-1.4-17.1-3.9-25H-8.5z"/>
<g>
	<polygon class="st2" points="77.5,103.7 98.2,115.6 118.9,127.6 98.2,139.5 77.5,151.4 77.5,132.6 46,132.6 69.4,165.7 
		102.5,146.6 135.5,127.6 102.5,108.5 69.4,89.5 46,122.5 77.5,122.5 	"/>
</g>
<g>
	<path class="st2" d="M40.8,75.2c-5.5,0-9.8-3.8-9.8-10.1V26.8l-6.1,1.9c-1.4,0.4-2.7,0.6-4,0.6c-3.9,0-6.9-1.8-7.4-5l-1.2-6.4
		l17.5-7.3c2.9-1.3,6.6-2,10.7-2c4.3,0,8.8,3.1,8.8,8.3v58.4H40.8z"/>
</g>
<g>
	<path class="st2" d="M169,246.6c-2.2,0-3.8-1.5-3.8-4v-15l-2.4,0.8c-0.5,0.2-1.1,0.2-1.6,0.2c-1.5,0-2.7-0.7-2.9-2l-0.5-2.5
		l6.9-2.9c1.1-0.5,2.6-0.8,4.2-0.8c1.7,0,3.4,1.2,3.4,3.3v22.9H169z"/>
</g>
</svg>
