<?xml version="1.0" encoding="utf-8"?>
<!-- Generator: Adobe Illustrator 22.1.0, SVG Export Plug-In . SVG Version: 6.00 Build 0)  -->
<svg version="1.1" id="Warstwa_1" xmlns="http://www.w3.org/2000/svg" xmlns:xlink="http://www.w3.org/1999/xlink" x="0px" y="0px"
	 viewBox="0 0 181.4 255.1" style="enable-background:new 0 0 181.4 255.1;" xml:space="preserve">
<style type="text/css">
	.st0{fill:#FFFFFF;}
	.st1{fill:#EDEDED;}
	.st2{fill:#F9B233;}
</style>
<g>
	<rect x="-8.5" y="-8.5" class="st0" width="198.4" height="272.1"/>
</g>
<path class="st1" d="M-8.5-8.5V93.7c7.9,2.5,16.2,3.9,24.9,3.9c44.8,0,81.2-36.3,81.2-81.2c0-8.7-1.4-17.1-3.9-25H-8.5z"/>
<g>
	<polygon class="st2" points="114.6,114.4 102.6,135.1 90.7,155.7 78.8,135.1 66.9,114.4 85.6,114.4 85.6,82.8 52.6,106.3 
		71.7,139.3 90.7,172.3 109.8,139.3 128.8,106.3 95.8,82.8 95.8,114.4 	"/>
</g>
<g>
	<path class="st2" d="M49,76.7H16.5c-4.7,0-8.9-3-8.9-7.8c0-6.1,4.5-11.6,11.8-17.3l15.4-12c3-2.3,4.3-5.1,4.3-8.1
		c0-5.1-3.4-7.9-9.6-7.9c-9.1,0-15.6,2-20.2,8H8.9v-5.9c0-8.9,6.5-17.2,24.6-17.2c15.2,0,24.3,10.1,24.3,21c0,9.8-3.4,13.6-15,21.7
		l-10.2,7.1c-1.4,1-3.4,2.7-4.2,3.6h30.7v6.3C59.2,73.6,56,76.7,49,76.7z"/>
</g>
<g>
	<path class="st2" d="M138.8,247.2c-5.7,0-8.6-1.8-8.6-5.5v-2.6h0.2c1.6,1.6,4.1,2.2,7.5,2.2c3.5,0,4.7-1.3,4.7-3.2
		c0-1.6-1-2.7-5.4-2.7c-2.2,0-4.8,0.2-6.6,0.6V226c0-3.7,1.3-5.6,5-5.6h13.2v2.2c0,2.2-1.5,3.7-4.4,3.7h-7v4
		c1.1-0.1,1.6-0.1,2.4-0.1c5.2,0,9.8,2.7,9.8,7.8C149.6,243.9,145.2,247.2,138.8,247.2z"/>
	<path class="st2" d="M168.9,246.6h-12.8c-1.9,0-3.5-1.2-3.5-3.1c0-2.4,1.8-4.6,4.6-6.8l6.1-4.7c1.2-0.9,1.7-2,1.7-3.2
		c0-2-1.3-3.1-3.8-3.1c-3.6,0-6.1,0.8-8,3.2h-0.2v-2.3c0-3.5,2.6-6.8,9.7-6.8c6,0,9.6,4,9.6,8.3c0,3.8-1.3,5.4-5.9,8.6l-4,2.8
		c-0.5,0.4-1.3,1.1-1.6,1.4h12.1v2.5C172.9,245.4,171.6,246.6,168.9,246.6z"/>
</g>
</svg>
