<svg xmlns="http://www.w3.org/2000/svg" viewBox="0 0 199.4 273.1">
  <defs>
    <style>
      .cls-1 {
        fill: #fff;
        stroke: #dadada;
      }

      .cls-2 {
        fill: #f9b233;
      }
    </style>
  </defs>
  <g id="card-gold" transform="translate(0.5 0.5)">
    <g id="background">
      <rect id="Rectangle_16" data-name="Rectangle 16" class="cls-1" width="198.4" height="272.1" rx="15"/>
    </g>
    <g id="arrow">
      <path id="Path_81" data-name="Path 81" class="cls-2" d="M123.1,122.9l-12,20.7L99.2,164.2,87.3,143.6,75.4,122.9H94.2V91.3L61.1,114.8l19.1,33,19,33,19.1-33,19-33-33-23.5v31.6Z"/>
    </g>
    <g id="value">
      <path id="Path_82" data-name="Path 82" class="cls-2" d="M57.5,85.2H25c-4.7,0-8.9-3-8.9-7.8,0-6.1,4.5-11.6,11.8-17.3l15.4-12A9.937,9.937,0,0,0,47.6,40c0-5.1-3.4-7.9-9.6-7.9-9.1,0-15.6,2-20.2,8h-.5V34.2c0-8.9,6.5-17.2,24.6-17.2,15.2,0,24.3,10.1,24.3,21,0,9.8-3.4,13.6-15,21.7L41,66.8a32.325,32.325,0,0,0-4.2,3.6H67.5v6.3C67.7,82.1,64.5,85.2,57.5,85.2Z"/>
    </g>
    <g id="start-code">
      <path id="Path_83" data-name="Path 83" class="cls-2" d="M147.4,255.7c-5.7,0-8.6-1.8-8.6-5.5v-2.6h.2c1.6,1.6,4.1,2.2,7.5,2.2,3.5,0,4.7-1.3,4.7-3.2,0-1.6-1-2.7-5.4-2.7a33.713,33.713,0,0,0-6.6.6V234.4c0-3.7,1.3-5.6,5-5.6h13.2V231c0,2.2-1.5,3.7-4.4,3.7h-7v4a21.817,21.817,0,0,1,2.4-.1c5.2,0,9.8,2.7,9.8,7.8C158.1,252.4,153.7,255.7,147.4,255.7Z"/>
      <path id="Path_84" data-name="Path 84" class="cls-2" d="M177.4,255.1H164.6a3.218,3.218,0,0,1-3.5-3.1c0-2.4,1.8-4.6,4.6-6.8l6.1-4.7a3.859,3.859,0,0,0,1.7-3.2c0-2-1.3-3.1-3.8-3.1-3.6,0-6.1.8-8,3.2h-.2V235c0-3.5,2.6-6.8,9.7-6.8,6,0,9.6,4,9.6,8.3,0,3.8-1.3,5.4-5.9,8.6l-4,2.8c-.5.4-1.3,1.1-1.6,1.4h12.1v2.5C181.4,253.9,180.1,255.1,177.4,255.1Z"/>
    </g>
  </g>
</svg>
