<?xml version="1.0" encoding="utf-8"?>
<!-- Generator: Adobe Illustrator 22.1.0, SVG Export Plug-In . SVG Version: 6.00 Build 0)  -->
<svg version="1.1" id="Warstwa_1" xmlns="http://www.w3.org/2000/svg" xmlns:xlink="http://www.w3.org/1999/xlink" x="0px" y="0px"
	 viewBox="0 0 181.4 255.1" style="enable-background:new 0 0 181.4 255.1;" xml:space="preserve">
<style type="text/css">
	.st0{fill:#FFFFFF;}
	.st1{fill:#EDEDED;}
	.st2{fill:#009640;}
</style>
<g>
	<rect x="-8.5" y="-8.5" class="st0" width="198.4" height="272.1"/>
</g>
<path class="st1" d="M-8.5-8.5V93.7c7.9,2.5,16.2,3.9,24.9,3.9c44.8,0,81.2-36.3,81.2-81.2c0-8.7-1.4-17.1-3.9-25H-8.5z"/>
<g>
	<polygon class="st2" points="103.9,151.4 83.2,139.5 62.6,127.6 83.2,115.6 103.9,103.7 103.9,122.5 135.5,122.5 112,89.5 
		79,108.5 46,127.6 79,146.6 112,165.7 135.5,132.6 103.9,132.6 	"/>
</g>
<g>
	<path class="st2" d="M29.6,78.6c-10.5,0-20.8-3.8-20.8-14.3v-7.1h0.5c4.1,4.2,11.8,6.6,20,6.6c8,0,10.7-2.7,10.7-6.1
		c0-5.2-2.2-7.2-12.1-7.9c-4.9-0.3-8-2.4-8-7v-4.1l9.2-0.8c10-0.9,10.5-3.7,10.5-7.1c0-4-2.8-7.2-12.4-7.2c-7.1,0-13.4,2.5-17.7,6.8
		H9.1v-7.4c0-6.9,7.1-14.1,23.3-14.1C45.6,8.8,57,16.2,57,28.5c0,7.5-4.6,12.4-9.9,14.9c5,1.4,10.2,7,10.2,13.3
		C57.4,70.9,47.2,78.6,29.6,78.6z"/>
</g>
<g>
	<path class="st2" d="M146.8,240.8h-1v5.8h-3.4c-2.4,0-3.7-0.9-3.7-3.5v-2.3h-7.1c-2,0-4-1.3-4-3c0-1.5,0.3-2.7,1-3.9
		c2.7-5,8.1-11.9,10.9-13.7h2.3c2.3,0,4.1,1.6,4.1,4.2v10.5h4v2.8C149.8,239.4,148.6,240.8,146.8,240.8z M138.7,228.1
		c-1.7,2.2-3.6,5.2-4.4,6.9h4.4V228.1z"/>
	<path class="st2" d="M162.1,247.2c-5.3,0-10.5-4.3-10.5-13.2c0-9.9,4.2-14.1,10.9-14.1c5.9,0,10.3,3.6,10.3,13.2
		C172.9,241.9,170.1,247.2,162.1,247.2z M162.3,241.2c2.4,0,3.4-1.4,3.4-7.8c0-5.9-1.2-7.5-3.4-7.5c-2.1,0-3.4,1.4-3.4,7.5
		C158.8,239.5,160.3,241.2,162.3,241.2z"/>
</g>
</svg>
