<svg xmlns="http://www.w3.org/2000/svg" viewBox="0 0 428.58 429.154">
  <defs>
    <style>
      .cls-1 {
        fill: #dadada;
      }
    </style>
  </defs>
  <g id="decoration-shape-1" transform="translate(796.509 88.076) rotate(135)">
    <path id="Path_7" data-name="Path 7" class="cls-1" d="M322.266,219.762h0a346.013,346.013,0,0,1,0,232.326h0A335.589,335.589,0,0,1,306.85,488.6c0,.271-.27.271-.27.541a47.012,47.012,0,0,1-2.7,5.139c-.27.541-.541.811-.811,1.352-.811,1.352-1.352,2.7-2.164,4.057l70.32,70.32c5.409-8.384,10.278-17.039,14.875-25.964a451.916,451.916,0,0,0,36.783-92.5h0a444.34,444.34,0,0,0,0-232.056h0c-3.516-12.982-7.843-25.964-12.441-38.676v-.27c-.811-2.434-1.893-4.868-2.7-7.3a9.614,9.614,0,0,0-1.082-2.434c-.541-1.623-1.352-3.246-1.893-4.868a38.316,38.316,0,0,0-2.164-4.868c-.271-.811-.811-1.623-1.082-2.434-1.082-2.434-2.164-4.868-3.246-7.032v-.27c-5.68-12.171-11.63-24.342-18.391-35.971h0c-2.7-4.868-5.68-9.466-8.384-14.064L300.9,171.89A347.8,347.8,0,0,1,322.266,219.762Z" transform="translate(131.746 -13.616)"/>
    <path id="Path_9" data-name="Path 9" class="cls-1" d="M253.934,241.4h0a24.744,24.744,0,0,0,.271,4.327v11.359a24.746,24.746,0,0,1-.271,4.327h0a133.115,133.115,0,0,1-2.434,20.555l70.861,70.861a264.645,264.645,0,0,0,20.014-94.391V244.921A263.211,263.211,0,0,0,322.361,150.8L251.5,221.661C252.582,227.881,253.393,234.643,253.934,241.4Z" transform="translate(47.538 70.762)"/>
  </g>
</svg>
