<svg xmlns="http://www.w3.org/2000/svg" viewBox="0 0 1401.393 372.028">
  <defs>
    <style>
      .cls-1 {
        fill: #dadada;
      }
    </style>
  </defs>
  <g id="decoration-shape-4" transform="translate(-259.303 -2524.464)">
    <g id="decoration-shape-3" transform="translate(1660.697 2524.464) rotate(90)">
      <path id="Subtraction_1" data-name="Subtraction 1" class="cls-1" d="M200.317,1401.393h0c-1.21-2.016-2.44-3.861-3.63-5.646l-.008-.012c-1.194-1.791-2.427-3.641-3.64-5.662a17.854,17.854,0,0,0-1.213-2.022,17.9,17.9,0,0,1-1.213-2.022c-2.421-4.034-4.882-8.341-7.262-12.507l-.014-.024-.014-.024c-2.381-4.167-4.844-8.477-7.266-12.514a1.055,1.055,0,0,0-.4-.809,1.055,1.055,0,0,1-.4-.809c-9.735-16.961-19.217-34.371-28.183-51.746-8.922-17.29-17.574-35.015-25.718-52.684-8.107-17.59-15.93-35.6-23.251-53.537-7.293-17.865-14.286-36.136-20.784-54.3-6.476-18.106-12.638-36.606-18.315-54.987-5.659-18.321-10.99-37.023-15.846-55.584-4.842-18.51-9.342-37.384-13.375-56.1-4.024-18.673-7.693-37.69-10.9-56.522-3.205-18.805-6.041-37.937-8.429-56.863C8.061,848.115,6.058,828.9,4.492,809.9c-1.565-18.98-2.735-38.255-3.479-57.289s-1.08-38.33-1-57.375.575-38.35,1.476-57.375,2.232-38.311,3.955-57.289c1.725-19,3.89-38.218,6.436-57.119,2.549-18.931,5.549-38.063,8.917-56.863v-.809c.81-4.857,1.837-9.786,2.83-14.553v0c.994-4.77,2.021-9.7,2.83-14.553a15.948,15.948,0,0,1,.4-2.828,15.976,15.976,0,0,0,.4-2.833c.809-4.045,1.837-8.359,2.83-12.53v0c.994-4.174,2.022-8.491,2.83-12.534a27.256,27.256,0,0,1,1.2-7.293c.127-.486.271-1.037.412-1.6a217.9,217.9,0,0,0,5.66-21.833c.4-1.618.816-3.468,1.213-5.257l0-.021c.4-1.781.805-3.623,1.208-5.234.915-4.118,2.091-7.984,3.229-11.723.889-2.923,1.729-5.682,2.432-8.493.4-2.02,1.02-4.074,1.616-6.061l0,0h0c.6-1.988,1.213-4.044,1.617-6.065.808-3.234,1.836-6.522,2.829-9.7v0l0-.006c.993-3.178,2.02-6.465,2.828-9.7.809-2.022,1.425-4.077,2.021-6.063s1.214-4.045,2.022-6.067c1.212-3.233,2.24-6.52,3.233-9.7l0-.005,0-.005c.993-3.178,2.021-6.465,3.233-9.7.808-2.021,1.425-3.87,2.021-5.659s1.213-3.639,2.022-5.662l4.5-11.987,2.783-7.421a40.754,40.754,0,0,0,2.02-5.253,40.724,40.724,0,0,1,2.023-5.26c1.212-3.638,2.651-7.131,4.042-10.509l0,0,0,0c1.391-3.378,2.829-6.871,4.041-10.508a28.944,28.944,0,0,1,1.618-4.448,29.024,29.024,0,0,0,1.617-4.448c2.426-7.277,5.714-14.677,8.895-21.832a28.869,28.869,0,0,0,3.235-7.278c1.619-4.047,3.468-7.951,5.256-11.726l0,0c1.788-3.776,3.638-7.68,5.255-11.722l.9-1.8.449-.9,1.078-2.156c3.13-7.824,7.151-16.727,11.322-25.068a4.089,4.089,0,0,0,.808-1.617,4.086,4.086,0,0,1,.809-1.618c1.317-2.634,2.694-5.3,4.152-8.131l.006-.012,0,0c2.976-5.77,6.054-11.737,8.777-17.729a2.824,2.824,0,0,0,.809-1.617l4.852-8.9,9.7-17.79a.8.8,0,0,0,.809-.808c2.971-5.943,6.266-11.618,9.453-17.1l0-.005c2.072-3.567,4.028-6.937,5.909-10.384v-.808c2.828-4.444,5.5-8.962,8.079-13.331l.005-.009.005-.009c2.583-4.371,5.254-8.892,8.083-13.337v-.809a76.972,76.972,0,0,1,4.04-6.869l0,0A77.111,77.111,0,0,0,201.125,0L255.61,54.485c-2.718,4.692-5.6,9.719-8.266,15.059a.8.8,0,0,1-.809.808L231.98,97.038a2.836,2.836,0,0,1-.808,1.617c-2.726,6-5.8,11.966-8.782,17.738l-.024.046c-1.451,2.813-2.822,5.471-4.133,8.093a4.084,4.084,0,0,0-.808,1.617,4.09,4.09,0,0,1-.809,1.618c-4.172,8.343-8.192,17.245-11.321,25.068l-1.618,3.235-.809,1.617c-1.618,4.045-3.468,7.951-5.257,11.728s-3.636,7.676-5.255,11.722a28.849,28.849,0,0,1-3.234,7.278c-3.181,7.156-6.469,14.555-8.9,21.833a29,29,0,0,1-1.618,4.449,29.006,29.006,0,0,0-1.617,4.447c-1.212,3.637-2.651,7.131-4.042,10.509l0,0,0,0c-1.391,3.378-2.829,6.87-4.041,10.508a40.734,40.734,0,0,0-2.021,5.255,40.72,40.72,0,0,1-2.022,5.257l-3.639,9.7-1.483,3.953-2.156,5.75c-.809,2.022-1.425,3.87-2.02,5.657s-1.214,3.641-2.023,5.664c-1.214,3.237-2.241,6.524-3.234,9.7s-2.021,6.468-3.235,9.7c-.808,2.019-1.423,4.071-2.019,6.056l0,.007c-.6,1.988-1.213,4.043-2.022,6.067-.809,3.238-1.837,6.527-2.831,9.708l0,.014c-.992,3.175-2.018,6.457-2.825,9.686-.4,2.024-1.021,4.078-1.617,6.065s-1.213,4.042-1.617,6.065c-.7,2.806-1.541,5.564-2.429,8.483-1.138,3.741-2.315,7.609-3.232,11.733-.4,1.617-.815,3.466-1.213,5.254l0,.014c-.4,1.781-.8,3.622-1.21,5.244l0,.008v.005a217.781,217.781,0,0,1-5.658,21.82c-.135.542-.271,1.062-.4,1.565l-.01.037a27.265,27.265,0,0,0-1.2,7.294c-.809,4.044-1.836,8.357-2.829,12.529l0,.015c-.993,4.171-2.02,8.484-2.828,12.524a15.941,15.941,0,0,1-.4,2.827v0a15.94,15.94,0,0,0-.4,2.83c-.809,4.853-1.836,9.784-2.83,14.552s-2.021,9.7-2.831,14.56v.809c-3.318,18.524-6.281,37.376-8.806,56.035-2.52,18.628-4.672,37.564-6.4,56.284-1.722,18.7-3.063,37.693-3.987,56.452S86,673.13,85.872,691.9s.154,37.792.827,56.543,1.761,37.754,3.233,56.466,3.369,37.669,5.637,56.308c2.271,18.663,4.976,37.526,8.04,56.068,3.07,18.576,6.584,37.332,10.443,55.746,3.868,18.455,8.189,37.075,12.843,55.343,4.667,18.315,9.8,36.772,15.244,54.858,5.465,18.143,11.4,36.409,17.642,54.291,6.263,17.943,13.005,35.991,20.04,53.643,7.061,17.717,14.609,35.519,22.436,52.914,7.86,17.466,16.215,35,24.832,52.1,8.66,17.19,17.82,34.42,27.226,51.21Z"/>
    </g>
    <g id="decoration-shape-3-2" data-name="decoration-shape-3" transform="translate(1660.697 2640.881) rotate(90)">
      <path id="Subtraction_1-2" data-name="Subtraction 1" class="cls-1" d="M200.317,1401.393h0c-1.21-2.016-2.44-3.861-3.63-5.646l-.008-.012c-1.194-1.791-2.427-3.641-3.64-5.662a17.854,17.854,0,0,0-1.213-2.022,17.9,17.9,0,0,1-1.213-2.022c-2.421-4.034-4.882-8.341-7.262-12.507l-.014-.024-.014-.024c-2.381-4.167-4.844-8.477-7.266-12.514a1.055,1.055,0,0,0-.4-.809,1.055,1.055,0,0,1-.4-.809c-9.735-16.961-19.217-34.371-28.183-51.746-8.922-17.29-17.574-35.015-25.718-52.684-8.107-17.59-15.93-35.6-23.251-53.537-7.293-17.865-14.286-36.136-20.784-54.3-6.476-18.106-12.638-36.606-18.315-54.987-5.659-18.321-10.99-37.023-15.846-55.584-4.842-18.51-9.342-37.384-13.375-56.1-4.024-18.673-7.693-37.69-10.9-56.522-3.205-18.805-6.041-37.937-8.429-56.863C8.061,848.115,6.058,828.9,4.492,809.9c-1.565-18.98-2.735-38.255-3.479-57.289s-1.08-38.33-1-57.375.575-38.35,1.476-57.375,2.232-38.311,3.955-57.289c1.725-19,3.89-38.218,6.436-57.119,2.549-18.931,5.549-38.063,8.917-56.863v-.809c.81-4.857,1.837-9.786,2.83-14.553v0c.994-4.77,2.021-9.7,2.83-14.553a15.948,15.948,0,0,1,.4-2.828,15.976,15.976,0,0,0,.4-2.833c.809-4.045,1.837-8.359,2.83-12.53v0c.994-4.174,2.022-8.491,2.83-12.534a27.256,27.256,0,0,1,1.2-7.293c.127-.486.271-1.037.412-1.6a217.9,217.9,0,0,0,5.66-21.833c.4-1.618.816-3.468,1.213-5.257l0-.021c.4-1.781.805-3.623,1.208-5.234.915-4.118,2.091-7.984,3.229-11.723.889-2.923,1.729-5.682,2.432-8.493.4-2.02,1.02-4.074,1.616-6.061l0,0h0c.6-1.988,1.213-4.044,1.617-6.065.808-3.234,1.836-6.522,2.829-9.7v0l0-.006c.993-3.178,2.02-6.465,2.828-9.7.809-2.022,1.425-4.077,2.021-6.063s1.214-4.045,2.022-6.067c1.212-3.233,2.24-6.52,3.233-9.7l0-.005,0-.005c.993-3.178,2.021-6.465,3.233-9.7.808-2.021,1.425-3.87,2.021-5.659s1.213-3.639,2.022-5.662l4.5-11.987,2.783-7.421a40.754,40.754,0,0,0,2.02-5.253,40.724,40.724,0,0,1,2.023-5.26c1.212-3.638,2.651-7.131,4.042-10.509l0,0,0,0c1.391-3.378,2.829-6.871,4.041-10.508a28.944,28.944,0,0,1,1.618-4.448,29.024,29.024,0,0,0,1.617-4.448c2.426-7.277,5.714-14.677,8.895-21.832a28.869,28.869,0,0,0,3.235-7.278c1.619-4.047,3.468-7.951,5.256-11.726l0,0c1.788-3.776,3.638-7.68,5.255-11.722l.9-1.8.449-.9,1.078-2.156c3.13-7.824,7.151-16.727,11.322-25.068a4.089,4.089,0,0,0,.808-1.617,4.086,4.086,0,0,1,.809-1.618c1.317-2.634,2.694-5.3,4.152-8.131l.006-.012,0,0c2.976-5.77,6.054-11.737,8.777-17.729a2.824,2.824,0,0,0,.809-1.617l4.852-8.9,9.7-17.79a.8.8,0,0,0,.809-.808c2.971-5.943,6.266-11.618,9.453-17.1l0-.005c2.072-3.567,4.028-6.937,5.909-10.384v-.808c2.828-4.444,5.5-8.962,8.079-13.331l.005-.009.005-.009c2.583-4.371,5.254-8.892,8.083-13.337v-.809a76.972,76.972,0,0,1,4.04-6.869l0,0A77.111,77.111,0,0,0,201.125,0L255.61,54.485c-2.718,4.692-5.6,9.719-8.266,15.059a.8.8,0,0,1-.809.808L231.98,97.038a2.836,2.836,0,0,1-.808,1.617c-2.726,6-5.8,11.966-8.782,17.738l-.024.046c-1.451,2.813-2.822,5.471-4.133,8.093a4.084,4.084,0,0,0-.808,1.617,4.09,4.09,0,0,1-.809,1.618c-4.172,8.343-8.192,17.245-11.321,25.068l-1.618,3.235-.809,1.617c-1.618,4.045-3.468,7.951-5.257,11.728s-3.636,7.676-5.255,11.722a28.849,28.849,0,0,1-3.234,7.278c-3.181,7.156-6.469,14.555-8.9,21.833a29,29,0,0,1-1.618,4.449,29.006,29.006,0,0,0-1.617,4.447c-1.212,3.637-2.651,7.131-4.042,10.509l0,0,0,0c-1.391,3.378-2.829,6.87-4.041,10.508a40.734,40.734,0,0,0-2.021,5.255,40.72,40.72,0,0,1-2.022,5.257l-3.639,9.7-1.483,3.953-2.156,5.75c-.809,2.022-1.425,3.87-2.02,5.657s-1.214,3.641-2.023,5.664c-1.214,3.237-2.241,6.524-3.234,9.7s-2.021,6.468-3.235,9.7c-.808,2.019-1.423,4.071-2.019,6.056l0,.007c-.6,1.988-1.213,4.043-2.022,6.067-.809,3.238-1.837,6.527-2.831,9.708l0,.014c-.992,3.175-2.018,6.457-2.825,9.686-.4,2.024-1.021,4.078-1.617,6.065s-1.213,4.042-1.617,6.065c-.7,2.806-1.541,5.564-2.429,8.483-1.138,3.741-2.315,7.609-3.232,11.733-.4,1.617-.815,3.466-1.213,5.254l0,.014c-.4,1.781-.8,3.622-1.21,5.244l0,.008v.005a217.781,217.781,0,0,1-5.658,21.82c-.135.542-.271,1.062-.4,1.565l-.01.037a27.265,27.265,0,0,0-1.2,7.294c-.809,4.044-1.836,8.357-2.829,12.529l0,.015c-.993,4.171-2.02,8.484-2.828,12.524a15.941,15.941,0,0,1-.4,2.827v0a15.94,15.94,0,0,0-.4,2.83c-.809,4.853-1.836,9.784-2.83,14.552s-2.021,9.7-2.831,14.56v.809c-3.318,18.524-6.281,37.376-8.806,56.035-2.52,18.628-4.672,37.564-6.4,56.284-1.722,18.7-3.063,37.693-3.987,56.452S86,673.13,85.872,691.9s.154,37.792.827,56.543,1.761,37.754,3.233,56.466,3.369,37.669,5.637,56.308c2.271,18.663,4.976,37.526,8.04,56.068,3.07,18.576,6.584,37.332,10.443,55.746,3.868,18.455,8.189,37.075,12.843,55.343,4.667,18.315,9.8,36.772,15.244,54.858,5.465,18.143,11.4,36.409,17.642,54.291,6.263,17.943,13.005,35.991,20.04,53.643,7.061,17.717,14.609,35.519,22.436,52.914,7.86,17.466,16.215,35,24.832,52.1,8.66,17.19,17.82,34.42,27.226,51.21Z"/>
    </g>
  </g>
</svg>
