<svg xmlns="http://www.w3.org/2000/svg" viewBox="0 0 467.669 467.878">
  <g id="decoration-shape-3" transform="translate(56.425 541.855) rotate(-135)">
    <path id="Path_6" data-name="Path 6" class="cls-1" d="M156.987,215.082c0-.295.295-.59.589-1.179a47.035,47.035,0,0,1,2.948-6.78,5.925,5.925,0,0,1,1.179-2.358c.884-1.769,1.474-3.537,2.358-5.306.59-1.179,1.179-2.358,1.769-3.832a26.956,26.956,0,0,1,2.063-4.127c.884-1.769,1.474-3.243,2.358-4.716.59-.884.884-2.063,1.474-2.948a47.69,47.69,0,0,1,2.948-5.306L97.443,101.3c-.884,1.769-2.063,3.242-2.948,5.011v.295c-2.063,3.242-3.832,6.485-5.9,9.727v.295c-1.769,3.243-3.832,6.485-5.6,10.022a.289.289,0,0,1-.295.295L77.4,136.673a1.029,1.029,0,0,1-.295.59c-1.474,3.242-3.242,6.485-4.716,9.433-.295.295-.295.884-.59,1.179-1.474,2.948-2.948,6.19-4.127,9.138l-.884,1.769c-1.179,2.948-2.653,5.6-3.832,8.548a10.471,10.471,0,0,1-1.179,2.653c-1.179,2.653-2.358,5.306-3.242,7.959-.295,1.179-.884,2.063-1.179,3.243-.884,2.653-2.063,5.011-2.948,7.664-.59,1.179-.884,2.653-1.474,3.832l-2.653,7.075c-.59,1.474-.884,2.653-1.474,4.127-.884,2.358-1.474,4.716-2.358,7.075-.59,1.474-.884,2.948-1.474,4.422-.59,2.358-1.474,4.716-2.063,7.075-.295,1.474-.884,2.948-1.179,4.422-.59,2.358-1.474,4.716-2.063,7.369-.295,1.179-.59,2.653-.884,3.832a79.023,79.023,0,0,1-2.063,7.959,12.535,12.535,0,0,0-.59,3.242c-.59,2.948-1.474,6.19-2.063,9.138,0,.59-.295,1.474-.295,2.063-.59,3.537-1.474,7.074-2.063,10.612v.295a482.954,482.954,0,0,0,56.3,325.428c0,.295.295.295.295.59,1.769,2.948,3.537,6.19,5.306,9.138.295.59.59.884.884,1.474.884,1.474,1.769,2.653,2.653,4.127L174.084,535.2C121.025,436.161,115.424,318.252,156.987,215.082Z" transform="translate(-7.192 -13.616)"/>
    <path id="Path_13" data-name="Path 13" class="cls-1" d="M187.1,260.65a175.442,175.442,0,0,1,2.948-32.72l-77.23-77.23a288.01,288.01,0,0,0,0,219.9l77.23-77.23A175.44,175.44,0,0,1,187.1,260.65Z" transform="translate(123.055 82.601)"/>
  </g>
</svg>
