<?xml version="1.0" encoding="utf-8"?>
<!-- Generator: Adobe Illustrator 22.1.0, SVG Export Plug-In . SVG Version: 6.00 Build 0)  -->
<svg version="1.1" id="Warstwa_1" xmlns="http://www.w3.org/2000/svg" xmlns:xlink="http://www.w3.org/1999/xlink" x="0px" y="0px"
	 viewBox="0 0 361 361" style="enable-background:new 0 0 361 361;" xml:space="preserve">
<path d="M1220,290c41.9-66.3,41.9-150.7,0-217l-31,32c26.2,47.6,26.2,105.4,0,153L1220,290z"/>
<path d="M1125,322c-47.6,26.2-105.4,26.2-153,0l-32,31c66,41.7,150,41.7,216,0L1125,322z"/>
<path d="M908,105l-32-32c-42.2,66.2-42.2,150.8,0,217l32-32C881.8,210.4,881.8,152.6,908,105z"/>
<path d="M937,134c-13.1,30.3-13.1,64.7,0,95l34-34c-1.6-8.9-1.6-18.1,0-27L937,134z"/>
<path d="M1159,228c12.8-30,12.8-64,0-94l-33,33c1.7,9.3,1.7,18.7,0,28L1159,228z"/>
<path d="M1062,259c-8.9,1.6-18.1,1.6-27,0l-34,33c30.3,13.1,64.7,13.1,95,0L1062,259z"/>
<path d="M0,318.6v-114c71.2,28.8,127.7,85.2,156.7,156.4H43C31,344.7,16.5,330.3,0,318.6z M255,361h106C319.6,181.3,179.4,41.1,0,0
	v107.3C122.5,143.1,218.4,238.6,255,361z"/>
</svg>
