<svg id="mail-icon" xmlns="http://www.w3.org/2000/svg" viewBox="0 0 48 48">
  <defs>
    <style>
      .cls-1 {
        fill: #009640;
      }
    </style>
  </defs>
  <g id="Group_6" data-name="Group 6">
    <path id="Path_16" data-name="Path 16" class="cls-1" d="M24,48a23.467,23.467,0,0,1-6.384-.864,24.346,24.346,0,0,1-5.736-2.424A24.032,24.032,0,0,1,3.288,36.12,24.338,24.338,0,0,1,.864,30.384a24.017,24.017,0,0,1,0-12.768A24.337,24.337,0,0,1,3.288,11.88,24.032,24.032,0,0,1,11.88,3.288,24.337,24.337,0,0,1,17.616.864,23.967,23.967,0,0,1,33.336,1.9,23.974,23.974,0,0,1,46.1,14.664a23.967,23.967,0,0,1,1.032,15.72,24.355,24.355,0,0,1-2.424,5.736,24.032,24.032,0,0,1-8.592,8.592,24.338,24.338,0,0,1-5.736,2.424A23.465,23.465,0,0,1,24,48ZM35.568,14.112H12.816a.831.831,0,0,0-.576.216.766.766,0,0,0-.24.6v2.544q0,.192.144.192L24.1,24.48l.1.048a.2.2,0,0,0,.144-.048L35.9,17.664a.367.367,0,0,1,.144-.048.37.37,0,0,0,.144-.048.17.17,0,0,0,.192-.192V14.928a.766.766,0,0,0-.24-.6A.832.832,0,0,0,35.568,14.112ZM19.248,24.336a.2.2,0,0,0,.048-.144c0-.1-.032-.144-.1-.144l-6.864-3.936a.309.309,0,0,0-.24,0q-.1,0-.1.144v10.32a.188.188,0,0,0,.144.192h.1q.1,0,.1-.048ZM27.6,25.1q-.048-.144-.24-.048l-2.64,1.536a.954.954,0,0,1-1.008,0l-2.3-1.3q-.144-.1-.24,0l-8.784,8.16a.277.277,0,0,0-.048.192q0,.048.1.144a1.575,1.575,0,0,0,.384.1H35.328a.276.276,0,0,0,.192-.1.38.38,0,0,0-.048-.24Zm8.64-5.184h-.192L29.52,23.808c-.064,0-.1.048-.1.144q-.048.048.048.144L36,31.152c.064.064.112.1.144.1h.1c.1-.1.144-.16.144-.192V20.112Q36.384,20.016,36.24,19.92Z"/>
  </g>
</svg>
