<svg xmlns="http://www.w3.org/2000/svg" viewBox="0 0 170 116.761"><defs><style>.a{fill:#f3f5f8;}</style></defs><g transform="translate(0 -80.25)"><path class="a" d="M37.317,122.709A37.151,37.151,0,1,1,.166,159.86L0,154.552a74.3,74.3,0,0,1,74.3-74.3v21.229a52.726,52.726,0,0,0-37.528,15.545,53.847,53.847,0,0,0-5.279,6.14A37.431,37.431,0,0,1,37.317,122.709Zm95.532,0A37.151,37.151,0,1,1,95.7,159.86l-.166-5.307a74.3,74.3,0,0,1,74.3-74.3v21.229a52.726,52.726,0,0,0-37.528,15.545,53.814,53.814,0,0,0-5.279,6.14A37.431,37.431,0,0,1,132.849,122.709Z" transform="translate(0 0)"/></g></svg>