<svg xmlns="http://www.w3.org/2000/svg" viewBox="0 0 64 64">
  <defs>
    <style>
      .cls-1 {
        fill: #ffcdac;
      }

      .cls-2 {
        fill: #7d9bff;
      }

      .cls-3 {
        fill: #78d2fa;
      }

      .cls-4 {
        fill: #ffb487;
      }

      .cls-5 {
        fill: #bebebe;
      }

      .cls-6 {
        fill: #f5b955;
      }
    </style>
  </defs>
  <g id="social-care" transform="translate(-0.001)">
    <g id="Group_13" data-name="Group 13" transform="translate(1.251 20.807)">
      <path id="Path_51" data-name="Path 51" class="cls-1" d="M21.989,194.257l-4.08-4.342a7.519,7.519,0,0,1-2.039-5.148V169.389a2.935,2.935,0,0,0-2.3-2.865h0A2.935,2.935,0,0,0,10,169.389V188.77a10.922,10.922,0,0,0,2.016,6.323l2.229,3.14,5.333,7.512L21.46,208.4H35.677l-2.048-9.761a17.256,17.256,0,0,0-7.259-10.776L22,184.919a3.133,3.133,0,0,0-4.094.522h0a3.372,3.372,0,0,0,.071,4.551c2.394,2.537,5.957,6.331,5.957,6.331" transform="translate(-10 -166.453)"/>
      <path id="Path_52" data-name="Path 52" class="cls-1" d="M310.27,194.257l4.08-4.342a7.519,7.519,0,0,0,2.039-5.148V169.389a2.935,2.935,0,0,1,2.3-2.865h0a2.935,2.935,0,0,1,3.57,2.865V188.77a10.922,10.922,0,0,1-2.016,6.323l-2.229,3.14-5.333,7.512L310.8,208.4H296.581l2.048-9.761a17.255,17.255,0,0,1,7.259-10.776l4.373-2.94a3.133,3.133,0,0,1,4.094.522h0a3.372,3.372,0,0,1-.071,4.551c-2.394,2.537-5.957,6.331-5.957,6.331" transform="translate(-260.758 -166.453)"/>
    </g>
    <g id="Group_14" data-name="Group 14" transform="translate(12.925 22.451)">
      <path id="Path_53" data-name="Path 53" class="cls-2" d="M280.137,183.664a4.613,4.613,0,0,1,2.252-1.289l3.192-.765v-1.949h3.9v1.955h0l3.184.76a4.625,4.625,0,0,1,3.55,4.5v2.334h-7.057Z" transform="translate(-258.044 -179.656)"/>
      <path id="Path_54" data-name="Path 54" class="cls-2" d="M119.465,183.613a4.613,4.613,0,0,0-2.252-1.289l-3.192-.765v-1.949h-3.9v1.955h0l-3.183.76a4.625,4.625,0,0,0-3.55,4.5v2.334h7.057Z" transform="translate(-103.39 -179.611)"/>
    </g>
    <path id="Path_55" data-name="Path 55" class="cls-3" d="M168.609,211.07l-4.446,1.065a6.442,6.442,0,0,0-4.94,6.264v4.495h24.194V218.4a6.442,6.442,0,0,0-4.945-6.265l-4.434-1.059" transform="translate(-139.319 -184.686)"/>
    <path id="Path_56" data-name="Path 56" class="cls-4" d="M239.742,189.357v2.723l-2.713,6.17-2.716-6.179v-2.714" transform="translate(-205.023 -165.687)"/>
    <path id="Path_57" data-name="Path 57" class="cls-1" d="M219.818,114.551v3.759a6.051,6.051,0,0,1-6.051,6.051h0a6.051,6.051,0,0,1-6.051-6.051v-3.759" transform="translate(-181.751 -100.232)"/>
    <path id="Path_58" data-name="Path 58" class="cls-5" d="M213.767,64h0a6.051,6.051,0,0,0-6.051,6.051v1.457h2.959a6.648,6.648,0,0,0,5.1-2.378h0l4.048,2.378V70.051A6.051,6.051,0,0,0,213.767,64Z" transform="translate(-181.751 -56)"/>
    <path id="Path_59" data-name="Path 59" class="cls-6" d="M146.8,95V93.955a4.345,4.345,0,0,0-4.344-4.344h0a4.345,4.345,0,0,0-4.344,4.344V95h2.995a10.358,10.358,0,0,0,5.324-1.473h0" transform="translate(-120.85 -78.41)"/>
    <path id="Path_60" data-name="Path 60" class="cls-1" d="M146.8,125.9v2.7a4.345,4.345,0,0,1-4.344,4.344h0a4.345,4.345,0,0,1-4.344-4.344v-2.7" transform="translate(-120.85 -110.166)"/>
    <path id="Path_61" data-name="Path 61" class="cls-6" d="M304.5,95.052V94.007a4.345,4.345,0,0,1,4.344-4.344h0a4.345,4.345,0,0,1,4.344,4.344v1.046h-2.995a10.358,10.358,0,0,1-5.324-1.473h0" transform="translate(-266.437 -78.454)"/>
    <path id="Path_62" data-name="Path 62" class="cls-1" d="M304.5,125.955v2.7A4.345,4.345,0,0,0,308.844,133h0a4.345,4.345,0,0,0,4.344-4.344v-2.7" transform="translate(-266.437 -110.211)"/>
    <path id="Path_63" data-name="Path 63" d="M78.893,471.318a1.25,1.25,0,1,0-2.038,1.447l1.882,2.651a1.25,1.25,0,1,0,2.038-1.447Z" transform="translate(-67.045 -411.943)"/>
    <path id="Path_64" data-name="Path 64" d="M26.1,189.627a18.409,18.409,0,0,0-7.785-11.557l-4.373-2.94a4.4,4.4,0,0,0-5.576.569V160.637a4.185,4.185,0,0,0-6.8-3.264A4.165,4.165,0,0,0,0,160.637v19.381a12.108,12.108,0,0,0,2.247,7.046l2.229,3.14a1.25,1.25,0,0,0,2.038-1.447l-2.229-3.14a9.621,9.621,0,0,1-1.785-5.6V160.637a1.684,1.684,0,1,1,3.369,0v15.377a8.734,8.734,0,0,0,2.253,5.864c.062.075.126.148.194.22.83.88,1.806,1.916,2.725,2.893l1.287,1.37.013.012,1.93,2.053a1.25,1.25,0,1,0,1.822-1.711c-.023-.024-1.486-1.582-3.157-3.358l-2.866-3.05-.021-.024a2.109,2.109,0,0,1,.041-2.764,1.89,1.89,0,0,1,2.461-.314l4.372,2.94a15.921,15.921,0,0,1,6.734,10L25.7,199.9a1.25,1.25,0,1,0,2.447-.513Z" transform="translate(0 -136.895)"/>
    <path id="Path_65" data-name="Path 65" d="M58.152,442.1a1.25,1.25,0,0,0-2.035,1.452l.008.011a1.25,1.25,0,0,0,2.035-1.452Z" transform="translate(-48.898 -386.379)"/>
    <path id="Path_66" data-name="Path 66" d="M313.192,157.376a4.185,4.185,0,0,0-6.8,3.264V175.7a4.4,4.4,0,0,0-5.576-.569l-4.373,2.94a18.408,18.408,0,0,0-7.785,11.557l-2.048,9.761a1.25,1.25,0,1,0,2.447.513l2.048-9.761a15.921,15.921,0,0,1,6.734-10l4.373-2.94a1.89,1.89,0,0,1,2.461.314,2.109,2.109,0,0,1,.043,2.761l-.024.027-6.023,6.409a1.25,1.25,0,1,0,1.822,1.711c.017-.018,5.125-5.449,5.955-6.328.068-.072.132-.145.194-.22a8.734,8.734,0,0,0,2.253-5.864V160.639a1.685,1.685,0,1,1,3.369,0v19.381a9.621,9.621,0,0,1-1.785,5.6l-9.444,13.3a1.25,1.25,0,1,0,2.038,1.447l9.444-13.3a12.108,12.108,0,0,0,2.247-7.046V160.639A4.166,4.166,0,0,0,313.192,157.376Z" transform="translate(-250.757 -136.897)"/>
    <path id="Path_67" data-name="Path 67" d="M125.813,86.708a1.25,1.25,0,0,0,1.25-1.25V80.967c0-.155-.006-.308-.015-.461h5.76a1.25,1.25,0,0,0,1.25-1.25V76.921a5.856,5.856,0,0,0-4.51-5.714l-2.224-.531v-.4a5.591,5.591,0,0,0,2.393-4.584V62.8a5.59,5.59,0,0,0-9.224-4.252,7.3,7.3,0,0,0-13.527.01A5.59,5.59,0,0,0,97.731,62.8v2.891a5.591,5.591,0,0,0,2.393,4.584v.4l-2.224.531a5.856,5.856,0,0,0-4.51,5.714v2.335a1.25,1.25,0,0,0,1.25,1.25h5.744c-.009.152-.015.3-.015.458v4.495a1.25,1.25,0,0,0,1.25,1.25h7.514a1.25,1.25,0,0,0,0-2.5h-1.292V81.625a1.25,1.25,0,1,0-2.5,0v2.583h-2.472V80.964a5.176,5.176,0,0,1,3.982-5.049l3.43-.822,2.3,5.223a1.25,1.25,0,0,0,1.144.747h0a1.25,1.25,0,0,0,1.144-.747l2.293-5.215,3.419.817a5.175,5.175,0,0,1,3.985,5.05v3.241h-2.472V81.625a1.25,1.25,0,1,0-2.5,0v2.583h-1.417a1.25,1.25,0,0,0,0,2.5ZM109.755,71.543a5.865,5.865,0,0,0-1-.338l-2.233-.535v-.39a5.64,5.64,0,0,0,1.083-.99,7.359,7.359,0,0,0,2.15,2.155Zm-9.525-5.85v-.6h1.745a11.612,11.612,0,0,0,4.444-.885v1.48a3.094,3.094,0,0,1-6.189,0Zm8.7-.365v-1.32h1.709a7.876,7.876,0,0,0,5.311-2.052l2.578,1.514v2.04a4.8,4.8,0,0,1-9.6-.183Zm8.753,6.219v-.085a7.356,7.356,0,0,0,2.168-2.161,5.639,5.639,0,0,0,1.074.979v.39l-2.233.535A5.883,5.883,0,0,0,117.684,71.547Zm3.345-5.854v-.183c0-.061,0-.121,0-.183V64.215a11.611,11.611,0,0,0,4.44.883h1.745v.6a3.094,3.094,0,1,1-6.189,0Zm3.094-5.986a3.1,3.1,0,0,1,3.088,2.89h-1.738a9.111,9.111,0,0,1-4.191-1.021A3.1,3.1,0,0,1,124.123,59.708ZM108.931,61.3a4.8,4.8,0,0,1,9.542-.763l-2.1-1.236a1.25,1.25,0,0,0-1.591.275,5.386,5.386,0,0,1-4.138,1.931h-1.709V61.3Zm-5.606-1.593a3.1,3.1,0,0,1,2.841,1.869,9.112,9.112,0,0,1-4.191,1.021h-1.738A3.1,3.1,0,0,1,103.325,59.708Zm2.943,13.776a7.666,7.666,0,0,0-5.312,4.522H95.89V76.921a3.364,3.364,0,0,1,2.591-3.282l3.183-.76a1.25,1.25,0,0,0,.96-1.216v-.42a5.426,5.426,0,0,0,1.4,0V71.6c0,.019,0,.037,0,.056a1.252,1.252,0,0,0,1.016,1.23l1.865.447Zm7.453,3.223-1.466-3.335v-.892a7.326,7.326,0,0,0,2.929,0v.9Zm7.437-3.221-.628-.15,1.875-.449a1.251,1.251,0,0,0,1.021-1.231c0-.01,0-.02,0-.029v-.383a5.426,5.426,0,0,0,1.4,0v.42a1.25,1.25,0,0,0,.96,1.216l3.183.761a3.364,3.364,0,0,1,2.591,3.282v1.085h-5.084A7.664,7.664,0,0,0,121.159,73.486Z" transform="translate(-81.715 -47.25)"/>
    <path id="Path_68" data-name="Path 68" d="M247.25,295.67a1.249,1.249,0,1,0,.884.365A1.256,1.256,0,0,0,247.25,295.67Z" transform="translate(-215.249 -258.711)"/>
    <path id="Path_69" data-name="Path 69" d="M247.244,4.37a1.25,1.25,0,0,0,1.25-1.25V1.25a1.25,1.25,0,0,0-2.5,0V3.12A1.25,1.25,0,0,0,247.244,4.37Z" transform="translate(-215.244)"/>
    <path id="Path_70" data-name="Path 70" d="M193.277,22.657a1.25,1.25,0,1,0,1.767-1.768l-1.311-1.31a1.25,1.25,0,1,0-1.767,1.768Z" transform="translate(-167.649 -16.811)"/>
    <path id="Path_71" data-name="Path 71" d="M291,23.272a1.246,1.246,0,0,0,.884-.367l1.3-1.3a1.25,1.25,0,0,0-1.769-1.767l-1.3,1.3A1.25,1.25,0,0,0,291,23.272Z" transform="translate(-253.527 -17.036)"/>
  </g>
</svg>
