<svg xmlns="http://www.w3.org/2000/svg" viewBox="0 0 64 73.19">
  <defs>
    <style>
      .cls-1 {
        fill: #ff4b4e;
      }

      .cls-2 {
        fill: #ffca54;
      }

      .cls-3 {
        fill: #00cdb3;
      }

      .cls-4 {
        fill: #57bae5;
      }

      .cls-5 {
        fill: #f99830;
      }

      .cls-6 {
        fill: #231f20;
      }
    </style>
  </defs>
  <g id="star" transform="translate(-32.143 0.001)">
    <circle id="Ellipse_1" data-name="Ellipse 1" class="cls-1" cx="2.152" cy="2.152" r="2.152" transform="translate(33.846 48.279)"/>
    <circle id="Ellipse_2" data-name="Ellipse 2" class="cls-2" cx="2.152" cy="2.152" r="2.152" transform="translate(43.52 23.466)"/>
    <circle id="Ellipse_3" data-name="Ellipse 3" class="cls-3" cx="2.152" cy="2.152" r="2.152" transform="translate(72.778 18.567)"/>
    <g id="Group_10" data-name="Group 10" transform="translate(52.185 7.967)">
      <circle id="Ellipse_4" data-name="Ellipse 4" class="cls-4" cx="2.152" cy="2.152" r="2.152" transform="translate(38.463 40.311)"/>
      <circle id="Ellipse_5" data-name="Ellipse 5" class="cls-4" cx="2.152" cy="2.152" r="2.152" transform="translate(0)"/>
    </g>
    <path id="Path_35" data-name="Path 35" class="cls-2" d="M95.769,128.073l-18.233-2.649L69.382,108.9a2.045,2.045,0,0,0-3.665,0l-8.154,16.522L39.33,128.073a2.044,2.044,0,0,0-1.132,3.486l13.193,12.86-3.115,18.16a2.045,2.045,0,0,0,2.965,2.154l16.308-8.574c17.743,9.328,16.546,8.808,17.259,8.808a2.045,2.045,0,0,0,2.014-2.389l-3.115-18.159L96.9,131.559A2.045,2.045,0,0,0,95.769,128.073Z" transform="translate(-4.66 -92.361)"/>
    <g id="Group_11" data-name="Group 11" transform="translate(32.92 15.404)">
      <path id="Path_36" data-name="Path 36" class="cls-5" d="M182.55,123.067l6.815-13.808-.176-.356a2.045,2.045,0,0,0-3.665,0l-8.154,16.522,2.76-.49A3.551,3.551,0,0,0,182.55,123.067Z" transform="translate(-157.387 -107.766)"/>
      <path id="Path_37" data-name="Path 37" class="cls-5" d="M52.677,280.345l2.774-16.171a3.838,3.838,0,0,0-.837-3.136L42.6,249.325a2.043,2.043,0,0,1,.418-3.239l-3.687.536a2.044,2.044,0,0,0-1.132,3.486l13.193,12.86-3.115,18.16a2.045,2.045,0,0,0,2.965,2.154l2.068-1.087A2.043,2.043,0,0,1,52.677,280.345Z" transform="translate(-37.579 -226.313)"/>
    </g>
    <g id="Group_12" data-name="Group 12" transform="translate(32.143 -0.001)">
      <path id="Path_38" data-name="Path 38" class="cls-6" d="M79.994,139.165,92.56,126.917a3.17,3.17,0,0,0-1.756-5.406l-7.988-1.161a1.156,1.156,0,0,0-.332,2.287l7.988,1.161a.858.858,0,0,1,.476,1.463l-13,12.672a1.155,1.155,0,0,0-.332,1.023l3.069,17.894a.859.859,0,0,1-1.245.9l-16.069-8.448a1.157,1.157,0,0,0-1.076,0l-16.069,8.448a.859.859,0,0,1-1.245-.9l3.069-17.894a1.156,1.156,0,0,0-.332-1.023l-13-12.672a.858.858,0,0,1,.475-1.464l17.966-2.611a1.156,1.156,0,0,0,.87-.632l8.035-16.28a.858.858,0,0,1,1.539,0l8.035,16.28a1.155,1.155,0,0,0,.87.632l6.06.881a1.156,1.156,0,0,0,.332-2.287l-5.459-.793-7.766-15.735a3.17,3.17,0,0,0-5.683,0l-7.766,15.735-17.365,2.523a3.17,3.17,0,0,0-1.756,5.406l12.565,12.248L42.7,156.46a3.173,3.173,0,0,0,3.12,3.708c1.073,0,.184.313,17.009-8.533L78.363,159.8a3.171,3.171,0,0,0,4.6-3.341Z" transform="translate(-32.143 -86.979)"/>
      <path id="Path_39" data-name="Path 39" class="cls-6" d="M379.879,132.61c.194.012.379.018.558.018,5.665,0,3.79-5.668,5.275-7.8a1.156,1.156,0,0,0-1.9-1.322,8.228,8.228,0,0,0-1.154,3.927c-.25,2.193-.345,3.014-2.636,2.868-2.525-.161-4.411.38-5.608,1.607a3.837,3.837,0,0,0-1.1,2.227l2.3.182S375.859,132.355,379.879,132.61Z" transform="translate(-324.546 -105.429)"/>
      <path id="Path_40" data-name="Path 40" class="cls-6" d="M284.522,13.014l.932,2.115c1.134-.5,2.851-2.458,1.232-6.289-.591-1.4-.3-1.591,1.322-2.376C289.6,5.7,292,4.54,291.364.953a1.156,1.156,0,1,0-2.276.4C289.4,3.139,288.633,3.6,287,4.382c-1.463.706-3.912,1.887-2.447,5.357C285.672,12.378,284.522,13.014,284.522,13.014Z" transform="translate(-248.088 0.001)"/>
      <path id="Path_41" data-name="Path 41" class="cls-6" d="M53.238,49.775c1.76.4,2.083.522,1.821,2.018-.979,5.583,3.559,7.05,3.963,4.935a1.156,1.156,0,0,0-.918-1.352c-.013,0-1.262-.372-.768-3.184.65-3.71-2-4.312-3.586-4.671-1.764-.4-2.616-.673-2.709-2.483a1.156,1.156,0,1,0-2.308.119C48.92,48.794,51.518,49.384,53.238,49.775Z" transform="translate(-46.36 -37.66)"/>
      <path id="Path_42" data-name="Path 42" class="cls-6" d="M106.166,163.788a3.275,3.275,0,1,0,2.316-5.591A3.254,3.254,0,0,0,106.166,163.788Zm2.316-3.28a.964.964,0,1,1-.682,1.646A.964.964,0,0,1,108.482,160.508Z" transform="translate(-94.759 -135.583)"/>
      <path id="Path_43" data-name="Path 43" class="cls-6" d="M309.511,128.067a3.275,3.275,0,1,0,2.316-5.591A3.274,3.274,0,0,0,309.511,128.067Zm2.316-1.352a.964.964,0,1,1,.682-1.646A.959.959,0,0,1,311.826,126.715Z" transform="translate(-269.038 -104.968)"/>
      <path id="Path_44" data-name="Path 44" class="cls-6" d="M42.157,331.164a3.275,3.275,0,1,0-2.316,5.592A3.274,3.274,0,0,0,42.157,331.164Zm-2.316,3.281a.964.964,0,1,1,.682-1.646A.957.957,0,0,1,39.842,334.445Z" transform="translate(-35.933 -283.002)"/>
      <path id="Path_45" data-name="Path 45" class="cls-6" d="M437.287,330.21A3.275,3.275,0,1,0,439.6,335.8,3.279,3.279,0,0,0,437.287,330.21Zm0,4.24a.964.964,0,1,1,.682-1.646A.957.957,0,0,1,437.287,334.45Z" transform="translate(-376.563 -283.007)"/>
      <path id="Path_46" data-name="Path 46" class="cls-6" d="M167.244,53.969a3.275,3.275,0,1,0-2.316-.959A3.254,3.254,0,0,0,167.244,53.969Zm-.682-3.957a.964.964,0,1,1-.282.682A.958.958,0,0,1,166.562,50.012Z" transform="translate(-145.124 -40.639)"/>
      <circle id="Ellipse_6" data-name="Ellipse 6" class="cls-6" cx="1.5" cy="1.5" r="1.5" transform="translate(3.11 21.402)"/>
      <circle id="Ellipse_7" data-name="Ellipse 7" class="cls-6" cx="1.5" cy="1.5" r="1.5" transform="translate(52.709 51.978)"/>
      <circle id="Ellipse_8" data-name="Ellipse 8" class="cls-6" cx="1.501" cy="1.501" r="1.501" transform="translate(4.447 61.302)"/>
      <path id="Path_47" data-name="Path 47" class="cls-6" d="M380.982,125.191c.621,0,.736-.254,2.434-2a1.156,1.156,0,1,0-1.657-1.611l-1.605,1.651A1.157,1.157,0,0,0,380.982,125.191Z" transform="translate(-330.125 -103.899)"/>
      <path id="Path_48" data-name="Path 48" class="cls-6" d="M144.48,122.827l2.135.863a1.155,1.155,0,1,0,.866-2.142l-2.135-.863a1.155,1.155,0,1,0-.866,2.142Z" transform="translate(-127.803 -103.36)"/>
      <path id="Path_49" data-name="Path 49" class="cls-6" d="M73.7,386.981l-2.135-.863a1.155,1.155,0,1,0-.866,2.142c2.308.933,2.27.948,2.568.948a1.156,1.156,0,0,0,.434-2.227Z" transform="translate(-64.565 -330.85)"/>
      <path id="Path_50" data-name="Path 50" class="cls-6" d="M414.6,414.591l-2.135-.863a1.156,1.156,0,0,0-.866,2.143c2.306.933,2.27.948,2.568.948A1.157,1.157,0,0,0,414.6,414.591Z" transform="translate(-356.739 -354.513)"/>
    </g>
  </g>
</svg>
