<svg id="strzalki-logo" xmlns="http://www.w3.org/2000/svg" viewBox="0 0 466.382 466.506">
  <defs>
    <style>
      .cls-1 {
        fill: #e30613;
      }

      .cls-2 {
        fill: #009fe3;
      }

      .cls-3 {
        fill: #fbba00;
      }

      .cls-4 {
        fill: #009640;
      }

      .cls-5 {
        fill: #dadada;
      }
    </style>
  </defs>
  <path id="red-elipse" class="cls-1" d="M229.035,194.668A34.368,34.368,0,1,1,194.668,160.3,34.365,34.365,0,0,1,229.035,194.668Z" transform="translate(38.586 38.586)"/>
  <path id="red-arrow" class="cls-1" d="M417.422,50.249l-58.561,58.686-18.735-2.481L232.433,214.146A52.145,52.145,0,0,0,203.4,185.114L310.969,77.544,308.488,58.81,367.3,0l5.831,44.293Z" transform="translate(48.96)"/>
  <path id="blue-arrow" class="cls-2" d="M214.022,184.99a52.906,52.906,0,0,0-29.033,29.033L77.3,106.329,58.561,108.81,0,50.249l44.293-5.831L50.249,0,108.81,58.561,106.329,77.3Z"/>
  <path id="gold-arrow" class="cls-3" d="M106.329,340.1l2.481,18.735L50.249,417.522l-5.955-44.293L0,367.149l58.561-58.561L77.3,311.069,184.99,203.5a52.523,52.523,0,0,0,29.033,29.033Z" transform="translate(0 48.984)"/>
  <path id="green-arrow" class="cls-4" d="M417.422,367.173l-44.293,5.955L367.3,417.422l-58.686-58.686L311.093,340,203.4,232.433A52.523,52.523,0,0,0,232.433,203.4L340.126,310.969l18.735-2.481Z" transform="translate(48.96 48.96)"/>
  <g id="target" transform="translate(29.936 30.025)">
    <path id="Path_6" data-name="Path 6" class="cls-5" d="M80.049,149.191c0-.124.124-.248.248-.5a19.8,19.8,0,0,1,1.241-2.854,2.494,2.494,0,0,1,.5-.993c.372-.744.62-1.489.993-2.233.248-.5.5-.993.744-1.613a11.347,11.347,0,0,1,.868-1.737c.372-.744.62-1.365.993-1.985.248-.372.372-.868.62-1.241a20.072,20.072,0,0,1,1.241-2.233L54.987,101.3c-.372.744-.868,1.365-1.241,2.109v.124c-.868,1.365-1.613,2.73-2.481,4.094v.124c-.744,1.365-1.613,2.73-2.357,4.218a.122.122,0,0,1-.124.124l-2.233,4.094a.433.433,0,0,1-.124.248c-.62,1.365-1.365,2.73-1.985,3.97-.124.124-.124.372-.248.5-.62,1.241-1.241,2.605-1.737,3.846l-.372.744c-.5,1.241-1.117,2.357-1.613,3.6a4.407,4.407,0,0,1-.5,1.117c-.5,1.117-.993,2.233-1.365,3.35-.124.5-.372.868-.5,1.365-.372,1.117-.868,2.109-1.241,3.226-.248.5-.372,1.117-.62,1.613l-1.117,2.978c-.248.62-.372,1.117-.62,1.737-.372.993-.62,1.985-.993,2.978-.248.62-.372,1.241-.62,1.861-.248.993-.62,1.985-.868,2.978-.124.62-.372,1.241-.5,1.861-.248.993-.62,1.985-.868,3.1-.124.5-.248,1.117-.372,1.613a33.262,33.262,0,0,1-.868,3.35,5.276,5.276,0,0,0-.248,1.365c-.248,1.241-.62,2.606-.868,3.846,0,.248-.124.62-.124.869-.248,1.489-.62,2.978-.868,4.467v.124a203.278,203.278,0,0,0,23.7,136.974c0,.124.124.124.124.248.744,1.241,1.489,2.606,2.233,3.846.124.248.248.372.372.62.372.62.744,1.117,1.117,1.737l32.383-32.382A159.72,159.72,0,0,1,80.049,149.191Z" transform="translate(-24.128 -5.641)"/>
    <path id="Path_7" data-name="Path 7" class="cls-5" d="M310.7,155.643h0a158.729,158.729,0,0,1,0,106.577h0a153.949,153.949,0,0,1-7.072,16.75c0,.124-.124.124-.124.248a21.558,21.558,0,0,1-1.241,2.357c-.124.248-.248.372-.372.62-.372.62-.62,1.241-.993,1.861l32.258,32.258c2.481-3.846,4.715-7.816,6.824-11.911a207.311,207.311,0,0,0,16.874-42.432h0a203.835,203.835,0,0,0,0-106.453h0c-1.613-5.955-3.6-11.911-5.707-17.742v-.124c-.372-1.117-.869-2.233-1.241-3.35a4.41,4.41,0,0,0-.5-1.117c-.248-.744-.62-1.489-.869-2.233a17.575,17.575,0,0,0-.993-2.233c-.124-.372-.372-.744-.5-1.117-.5-1.117-.993-2.233-1.489-3.226v-.124c-2.605-5.583-5.335-11.166-8.437-16.5h0c-1.241-2.233-2.606-4.342-3.846-6.452L300.9,133.682A159.555,159.555,0,0,1,310.7,155.643Z" transform="translate(42.493 -5.641)"/>
    <path id="Path_8" data-name="Path 8" class="cls-5" d="M210.75,251.5c-2.978.5-6.079.868-9.181,1.117h0a76.187,76.187,0,0,1-18.363-1.117L150.7,284.007q3.908,1.675,7.816,2.978c.124,0,.124,0,.248.124a78.4,78.4,0,0,0,7.692,2.233c.124,0,.372.124.5.124,1.117.248,2.233.62,3.474.868.124,0,.248.124.372.124l3.722.744c.248,0,.372.124.62.124a26.861,26.861,0,0,0,3.1.5c.248,0,.62.124.868.124,1.241.124,2.481.372,3.6.5h.5c1.117.124,2.109.248,3.226.372a2.419,2.419,0,0,1,.993.124c1.117.124,2.109.124,3.226.248h.5c1.241,0,2.481.124,3.6.124h4.715c1.241,0,2.481-.124,3.722-.124h.62a24.163,24.163,0,0,0,3.1-.248,1.574,1.574,0,0,0,.744-.124c2.481-.248,5.087-.5,7.568-.869.248,0,.372-.124.62-.124,2.606-.372,5.087-.868,7.692-1.489.124,0,.248,0,.248-.124,1.241-.248,2.605-.62,3.846-.993h0c2.606-.744,5.335-1.489,7.816-2.357h.124c2.481-.869,4.963-1.737,7.444-2.854Z" transform="translate(6.339 30.513)"/>
    <path id="Path_9" data-name="Path 9" class="cls-5" d="M252.617,192.364h0a11.352,11.352,0,0,0,.124,1.985v5.211a11.353,11.353,0,0,1-.124,1.985h0a61.069,61.069,0,0,1-1.117,9.429l32.507,32.507a121.4,121.4,0,0,0,9.181-43.3v-6.2a120.745,120.745,0,0,0-9.181-43.177L251.5,183.307C252,186.16,252.368,189.262,252.617,192.364Z" transform="translate(30.602 6.274)"/>
    <path id="Path_10" data-name="Path 10" class="cls-5" d="M133.782,87.352a158.814,158.814,0,0,1,150.126,0L316.291,54.97c-2.109-1.365-4.218-2.605-6.452-3.846h0A204.965,204.965,0,0,0,267.9,33.009a208.156,208.156,0,0,0-31.886-6.948h0c-1.241-.124-2.481-.372-3.722-.5h-.5l-3.35-.372c-.372,0-.62-.124-.993-.124-.993-.124-1.861-.124-2.854-.248-.5,0-.993-.124-1.489-.124-.868,0-1.613-.124-2.481-.124-.62,0-1.241-.124-1.985-.124s-1.365-.124-2.109-.124a15.015,15.015,0,0,1-2.357-.124h-5.831c-3.226,0-6.452.124-9.553.248a7.632,7.632,0,0,0-1.613.124,28.358,28.358,0,0,0-3.1.248c-.62,0-1.365.124-1.985.124-.869.124-1.613.124-2.481.248-.744.124-1.613.124-2.357.248-.5,0-.868.124-1.365.124-2.109.248-4.094.5-6.2.744-.248,0-.5.124-.744.124-1.117.124-2.233.372-3.35.5-.248,0-.62.124-.869.124-1.241.248-2.357.372-3.474.62a.456.456,0,0,0-.372.124c-5.211.993-10.174,2.109-15.261,3.474-.248.124-.5.124-.744.248-1.117.248-2.109.62-3.226.868l-1.117.372c-.993.248-1.985.62-2.978.868a4.445,4.445,0,0,0-1.365.5c-1.241.372-2.481.744-3.722,1.241-.993.372-2.109.744-3.1,1.117-.5.124-.869.372-1.365.5a32.315,32.315,0,0,0-3.1,1.241,4.407,4.407,0,0,0-1.117.5c-1.241.5-2.357.993-3.6,1.489-.248.124-.372.124-.62.248A195.893,195.893,0,0,0,101.4,55.094Z" transform="translate(-5.528 -24.2)"/>
    <path id="Path_11" data-name="Path 11" class="cls-5" d="M284.056,300.9a159.772,159.772,0,0,1-150.374,0L101.3,333.283A203.01,203.01,0,0,0,199.068,363.8h.372c1.489.124,2.854.124,4.342.124H215.2a19.208,19.208,0,0,0,2.73-.124,8.19,8.19,0,0,0,1.737-.124c.993,0,1.985-.124,2.978-.124.5,0,.993-.124,1.489-.124,1.117-.124,2.233-.124,3.35-.248.372,0,.868-.124,1.241-.124l3.722-.372a1.573,1.573,0,0,0,.744-.124c1.489-.124,2.978-.372,4.467-.62h0a160.424,160.424,0,0,0,18.983-3.722c.124,0,.248-.124.372-.124,1.365-.372,2.73-.744,4.094-.993.248-.124.5-.124.744-.248,1.241-.372,2.481-.744,3.722-.993a2.919,2.919,0,0,1,.993-.248c1.117-.372,2.357-.744,3.474-1.117a8.578,8.578,0,0,0,.993-.372c1.365-.5,2.73-.869,4.094-1.365.868-.372,1.861-.62,2.73-.992.5-.124.868-.372,1.365-.5,1.117-.372,2.109-.868,3.226-1.241a1.764,1.764,0,0,1,.744-.248c1.241-.5,2.357-.993,3.474-1.489h.124a206.275,206.275,0,0,0,28.909-15.013Z" transform="translate(-5.552 42.404)"/>
    <path id="Path_12" data-name="Path 12" class="cls-5" d="M207.324,91.272c-1.241-.124-2.481-.248-3.722-.248h-.248c-1.241-.124-2.605-.124-3.846-.124h-4.715a32.512,32.512,0,0,0-3.474.124h-.993c-.868,0-1.737.124-2.605.124-.5,0-.993.124-1.489.124-.744.124-1.489.124-2.357.248-.62.124-1.241.124-1.861.248l-2.605.372c-.62.124-1.117.124-1.737.248l-1.861.372c-.62.124-1.117.248-1.737.372-.993.248-1.985.372-2.978.62-.62.124-1.241.248-1.737.372-.62.124-1.117.248-1.737.372a10.336,10.336,0,0,0-1.861.5c-.62.124-1.241.372-1.861.5-.868.248-1.861.5-2.73.744-.62.124-1.117.372-1.737.5-.62.248-1.117.372-1.737.62s-1.241.372-1.861.62c-.744.248-1.365.5-2.109.744-.868.372-1.613.62-2.481.993a1.763,1.763,0,0,1-.744.248l32.507,32.507a82.612,82.612,0,0,1,18.363-1.117h0a59.512,59.512,0,0,1,9.305,1.117l32.507-32.507a119.557,119.557,0,0,0-35.732-8.685Z" transform="translate(6.29 -8.145)"/>
    <path id="Path_13" data-name="Path 13" class="cls-5" d="M131.447,196.978a73.845,73.845,0,0,1,1.241-13.772L100.181,150.7a121.225,121.225,0,0,0,0,92.557l32.507-32.507A73.844,73.844,0,0,1,131.447,196.978Z" transform="translate(-8.032 6.25)"/>
  </g>
</svg>
