<svg viewBox="0 0 64 64">
  <g data-name="Group 9">
    <path fill="#ff8d8d" d="M32 33V15a6 6 0 1 0-11 1 7 7 0 0 0-7 8 7 7 0 0 0 0 14c-5 5 0 12 7 10a6 6 0 1 0 11 1V33z" data-name="Path 17"/>
    <path fill="#fd4a4a" d="M38 10a6 6 0 0 0-6 5v34a6 6 0 1 0 11-1c7 2 12-5 7-10a8 8 0 0 0 3-2 8 8 0 1 1-3-15 7 7 0 0 0-7-5 6 6 0 0 0-5-6z" data-name="Path 18"/>
    <path fill="#009640" d="M48 37a8 8 0 1 0-8-8 8 8 0 0 0 8 8z" data-name="Path 19"/>
  </g>
  <path d="M32 5a1 1 0 0 0 1-1V1a1 1 0 0 0-2 0v3a1 1 0 0 0 1 1z" data-name="Path 21"/>
  <path d="M17 8a1 1 0 0 0 2-1l-1-2a1 1 0 1 0-2 1z" data-name="Path 22"/>
  <path d="M5 18l2 1a1 1 0 0 0 1-2l-2-1a1 1 0 1 0-1 2z" data-name="Path 23"/>
  <path d="M5 32a1 1 0 0 0-1-1H1a1 1 0 1 0 0 2h3a1 1 0 0 0 1-1z" data-name="Path 24"/>
  <path d="M7 45l-2 1a1 1 0 1 0 1 2l2-1a1 1 0 1 0-1-2z" data-name="Path 25"/>
  <path d="M18 55a1 1 0 0 0-1 1l-1 2a1 1 0 1 0 2 1l1-2a1 1 0 0 0-1-2z" data-name="Path 26"/>
  <path d="M32 59a1 1 0 0 0-1 1v3a1 1 0 0 0 2 0v-3a1 1 0 0 0-1-1z" data-name="Path 27"/>
  <path d="M47 56a1 1 0 0 0-2 1l1 2a1 1 0 0 0 2-1z" data-name="Path 28"/>
  <path d="M59 46l-2-1a1 1 0 0 0-1 2l2 1a1 1 0 0 0 1-2z" data-name="Path 29"/>
  <path d="M63 31h-3a1 1 0 1 0 0 2h3a1 1 0 0 0 0-2z" data-name="Path 30"/>
  <path d="M56 19a1 1 0 0 0 1 0l2-1a1 1 0 0 0-1-2l-2 1a1 1 0 0 0 0 2z" data-name="Path 31"/>
  <path d="M46 9a1 1 0 0 0 1-1l1-2a1 1 0 1 0-2-1l-1 2a1 1 0 0 0 1 2z" data-name="Path 32"/>
  <path d="M57 29a9 9 0 0 0-6-9 8 8 0 0 0-6-6 7 7 0 0 0-2-3 7 7 0 0 0-11 0 7 7 0 0 0-11 0 7 7 0 0 0-2 3 8 8 0 0 0-5 4 8 8 0 0 0-1 5 9 9 0 0 0-1 15 7 7 0 0 0-1 7 8 8 0 0 0 8 5 7 7 0 0 0 2 3 7 7 0 0 0 11 0 7 7 0 0 0 11 0 7 7 0 0 0 2-3 8 8 0 0 0 7-4 7 7 0 0 0 0-8 9 9 0 0 0 5-9zM26 53a5 5 0 0 1-3-1 4 4 0 0 1-1-3 5 5 0 0 0 3-3l2-2a1 1 0 0 0-1-2 5 5 0 0 0-3 3 3 3 0 0 1-3 2 6 6 0 0 1-1 0 5 5 0 0 1-5-3 5 5 0 0 1 1-5 1 1 0 0 0-1-2 6 6 0 0 1 1-12 1 1 0 0 0 1-1 5 5 0 0 1 0-5 5 5 0 0 1 5-2 3 3 0 0 1 3 2c1 1 1 2 3 2a1 1 0 1 0 0-2l-1-1a5 5 0 0 0-4-4 4 4 0 0 1 1-2 5 5 0 0 1 3-1 4 4 0 0 1 5 4v17c-3 0-4-2-5-3-1-2-2-4-5-4a1 1 0 1 0 0 2c2 0 2 1 3 3a15 15 0 0 0 1 2 11 11 0 0 1-3 1 1 1 0 1 0 1 3 13 13 0 0 0 4-3 8 8 0 0 0 4 1v15a4 4 0 0 1-5 4zm23-14a5 5 0 0 1 1 6 5 5 0 0 1-6 2 3 3 0 0 1-3-2 5 5 0 0 0-3-3 1 1 0 0 0-1 2l2 2a5 5 0 0 0 3 3 4 4 0 0 1-1 3 5 5 0 0 1-3 1 4 4 0 0 1-5-4v-9c0-2 1-3 3-4a3 3 0 0 1 3 2 1 1 0 1 0 2-1 6 6 0 0 0-6-3 5 5 0 0 0-2 1V15a4 4 0 0 1 5-4 5 5 0 0 1 3 1 4 4 0 0 1 1 2 5 5 0 0 0-4 4l-1 1a1 1 0 0 0 0 2c2 0 2-1 3-2a3 3 0 0 1 3-2 6 6 0 0 1 5 3 9 9 0 1 0 1 18 1 1 0 0 0 0 1zm-1-3a7 7 0 1 1 7-7 7 7 0 0 1-7 7z" data-name="Path 33"/>
  <path d="M52 26a1 1 0 0 0-2 0l-3 3-1-1a1 1 0 1 0-2 2l3 2a1 1 0 0 0 1 0l4-4a1 1 0 0 0 0-2z" data-name="Path 34"/>
</svg>
