<svg viewBox="0 0 199 273">
  <rect width="198" height="272" fill="#fff" stroke="#dadada" data-name="Rectangle 14" rx="15" transform="translate(1 1)"/>
  <path d="M76 150l12-20 12-21 12 21 12 20h-19v32l33-24-19-33-19-33-19 33-19 33 33 24v-32z" class="cls-2" data-name="Path 73"/>
  <path d="M40 86c-15 0-22-4-22-14v-6h1c4 4 10 5 19 5 8 0 12-3 12-8 0-4-3-7-14-7a108 108 0 0 0-17 2V32c0-9 3-14 13-14h33v6c0 5-4 9-11 9H36v10h6c14 0 25 7 25 20 0 15-11 23-27 23z" class="cls-2" data-name="Path 74"/>
  <path d="M147 256c-4 0-8-2-8-6v-3c2 2 5 3 8 3s4-1 4-3-1-2-5-3c-2 0-3-1-3-2v-2h4c4-1 4-2 4-3 0-2-1-3-5-3a9 9 0 0 0-7 3v-3c0-3 3-5 9-5 5 0 10 2 10 7a6 6 0 0 1-4 6 6 6 0 0 1 4 5c0 6-4 9-11 9z" class="cls-2" data-name="Path 75"/>
  <path d="M172 256c-6 0-11-5-11-14s4-14 11-14c6 0 10 4 10 14 0 8-2 14-10 14zm0-6c2 0 3-2 3-8s-1-8-3-8-4 2-4 8 2 8 4 8z" class="cls-2" data-name="Path 76"/>
</svg>
