<svg viewBox="0 0 199 273">
  <rect width="198" height="272" fill="#fff" stroke="#dadada" data-name="Rectangle 15" rx="15" transform="translate(1 1)"/>
  <path d="M113 161l-20-12-21-12 21-12 20-12v19h32l-23-33-33 19-33 19 33 19 33 19 23-33h-32z" class="cls-2" data-name="Path 77"/>
  <path d="M39 88c-10 0-21-4-21-14v-7h1c4 4 12 6 20 6s11-3 11-6c0-5-3-7-12-8-5 0-8-2-8-7v-4l9-1c10-1 10-3 10-7s-3-7-12-7c-7 0-14 2-18 7v-8c0-7 7-14 23-14 13 0 25 8 25 20 0 7-5 12-10 15 5 1 10 7 10 13 0 14-10 22-28 22z" class="cls-2" data-name="Path 78"/>
  <path d="M156 250h-1v6h-3c-2 0-4-1-4-3v-3h-7c-2 0-4-1-4-3a7 7 0 0 1 1-4l11-13h2a4 4 0 0 1 4 4v10h4v3a3 3 0 0 1-3 3zm-8-12a45 45 0 0 0-4 7h4z" class="cls-2" data-name="Path 79"/>
  <path d="M178 256h-13a3 3 0 0 1-4-3c0-2 2-4 5-7l6-5a4 4 0 0 0 2-3c0-2-2-3-4-3-4 0-6 1-8 3v-2c0-3 2-7 9-7 6 0 10 4 10 9 0 3-1 5-6 8l-4 3-2 1h12v3c1 2-1 3-3 3z" class="cls-2" data-name="Path 80"/>
</svg>
