<svg viewBox="0 0 199 273">
  <rect width="198" height="272" fill="#fff" stroke="#dadada" data-name="Rectangle 16" rx="15" transform="translate(1 1)"/>
  <path d="M124 124l-12 21-12 20-12-20-12-21h19V92l-33 24 19 33 19 33 19-33 19-33-33-24v32z" class="cls-2" data-name="Path 81"/>
  <path d="M59 86H26c-5 0-9-3-9-8 0-6 5-11 12-17l15-12a10 10 0 0 0 5-8c0-5-4-8-10-8-9 0-16 2-20 8h-1v-6c0-9 7-17 25-17 15 0 24 10 24 21 0 10-3 14-15 22l-10 7a32 32 0 0 0-4 3h31v7c0 5-3 8-10 8z" class="cls-2" data-name="Path 82"/>
  <path d="M148 257c-5 0-8-2-8-6v-2l8 2c3 0 4-2 4-3 0-2-1-3-5-3a34 34 0 0 0-7 1v-11c0-3 1-5 5-5h13v2c0 2-1 4-4 4h-7v4a22 22 0 0 1 2 0c6 0 10 2 10 7 0 6-4 10-11 10z" class="cls-2" data-name="Path 83"/>
  <path d="M178 256h-12a3 3 0 0 1-4-3c0-2 2-5 5-7l6-5a4 4 0 0 0 1-3c0-2-1-3-3-3-4 0-6 1-8 3h-1v-2c0-3 3-7 10-7 6 0 10 4 10 8s-2 6-6 9l-4 3-2 1h12v3c0 2-1 3-4 3z" class="cls-2" data-name="Path 84"/>
</svg>
