<svg viewBox="0 0 181 255" style="enable-background:new 0 0 181 255;" xml:space="preserve">
<path class="st0" d="M-9-9h198v272H-9V-9z"/>
<path class="st1" d="M-8-8V94c42.6,13.8,88.2-9.6,102-52.1C99.2,25.7,99.2,8.2,94-8H-8z"/>
<path d="M30,79C19,79,9,75,9,64v-7c4,4,12,7,20,7s11-3,11-6c0-6-2-8-12-8c-5-1-8-3-8-7v-4l9-1c10-1,11-4,11-7c0-4-3-7-13-7
	c-7,0-13,2-18,6v-7c0-7,7-14,23-14c14,0,25,7,25,20c0,7-5,12-10,14c5,2,10,7,10,14C57,71,47,79,30,79z"/>
<path d="M104,151l-21-11l-20-12l20-12l21-12v19h32l-24-33l-33,19l-33,19l33,19l33,19l24-33h-32V151z M146,235v-11c0-2-2-4-4-4h-2
	c-3,2-9,9-11,14l-1,4c0,2,2,3,4,3h7v2c0,3,1,4,3,4h4v-6h1c2,0,3-2,3-3v-3H146z M139,235h-5l5-7V235z M162,220c-6,0-10,4-10,14
	c0,9,5,13,10,13c8,0,11-5,11-14S168,220,162,220z M162,241c-2,0-3-1-3-8c0-6,1-7,3-7c3,0,4,1,4,7C166,240,165,241,162,241z"/>
</svg>
