<?xml version="1.0" encoding="utf-8"?>
<!-- Generator: Adobe Illustrator 22.1.0, SVG Export Plug-In . SVG Version: 6.00 Build 0)  -->
<svg version="1.1" id="Warstwa_1" xmlns="http://www.w3.org/2000/svg" xmlns:xlink="http://www.w3.org/1999/xlink" x="0px" y="0px"
	 viewBox="0 0 181 255" style="enable-background:new 0 0 181 255;" xml:space="preserve">
<style type="text/css">
	.st0{fill:#FFFFFF;}
	.st1{fill:#EDEDED;}
</style>
<path class="st0" d="M-9-8h198v272H-9V-8z"/>
<path class="st1" d="M-8-8V94c42.6,13.8,88.2-9.6,102-52.1C99.2,25.7,99.2,8.2,94-8H-8z"/>
<path d="M41,75c-6,0-10-4-10-10V27l-6,2h-4c-4,0-7-2-8-5l-1-6l18-7c3-2,6-2,10-2c5,0,9,3,9,8v58H41z"/>
<path d="M78,104l20,12l21,12l-21,12l-20,11v-18H46l23,33l34-19l33-19l-33-19L69,90l-23,33h32V104z M169,247c-2,0-4-2-4-4v-15h-2
	l-2,1l-3-2v-3l7-3l4-1c2,0,3,2,3,4v23H169z"/>
</svg>
