<?xml version="1.0" encoding="utf-8"?>
<!-- Generator: Adobe Illustrator 22.1.0, SVG Export Plug-In . SVG Version: 6.00 Build 0)  -->
<svg version="1.1" id="Warstwa_1" xmlns="http://www.w3.org/2000/svg" xmlns:xlink="http://www.w3.org/1999/xlink" x="0px" y="0px"
	 viewBox="0 0 181 255" style="enable-background:new 0 0 181 255;" xml:space="preserve">
<style type="text/css">
	.st0{fill:#FFFFFF;}
	.st1{fill:#EDEDED;}
</style>
<path class="st0" d="M-9-9h198v272H-9V-9z"/>
<path class="st1" d="M-8-8V94c42.6,13.8,88.2-9.6,102-52.1C99.2,25.7,99.2,8.2,94-8H-8z"/>
<path d="M49,77H17c-5,0-9-3-9-8c0-6,4-12,11-17l16-12c3-3,4-5,4-8c0-6-3-8-10-8c-9,0-15,2-20,8v-6c0-9,6-17,25-17c15,0,24,10,24,21
	c0,9-4,13-15,21l-10,7l-5,4h31v6C59,74,56,77,49,77z"/>
<path d="M115,114l-12,21l-12,21l-12-21l-12-21h19V83l-33,23l19,33l19,33l19-33l19-33L96,83v31H115z M139,247c-6,0-9-2-9-5v-3
	c2,2,5,2,8,2s5-1,5-3s-1-3-6-3l-6,1v-10c0-4,1-6,5-6h13v3c0,2-2,3-5,3h-7v4h3c5,0,10,3,10,8C150,244,145,247,139,247z M169,247h-13
	c-2,0-3-2-3-4s1-4,4-6l6-5l2-3c0-2-1-3-4-3s-6,1-8,3v-2c0-4,3-7,10-7c6,0,9,4,9,8s-1,5-6,9l-4,2l-1,2h12v2C173,245,172,247,169,247z
	"/>
</svg>
