<?xml version="1.0" encoding="utf-8"?>
<!-- Generator: Adobe Illustrator 22.1.0, SVG Export Plug-In . SVG Version: 6.00 Build 0)  -->
<svg version="1.1" id="Warstwa_1" xmlns="http://www.w3.org/2000/svg" xmlns:xlink="http://www.w3.org/1999/xlink" x="0px" y="0px"
	 viewBox="0 0 181 255" style="enable-background:new 0 0 181 255;" xml:space="preserve">
<style type="text/css">
	.st0{fill:#FFFFFF;}
	.st1{fill:#EDEDED;}
</style>
<path class="st0" d="M-9-9h198v272H-9V-9z"/>
<path class="st1" d="M-8-8V94c42.6,13.8,88.2-9.6,102-52.1C99.2,25.7,99.2,8.2,94-8H-8z"/>
<path d="M30,77C16,77,9,72,9,63v-7c4,4,11,6,19,6c9,0,12-3,12-8c0-4-2-7-14-7l-16,1V23c0-10,3-14,12-14h34v5c0,6-4,9-11,9H27v11l6-1
	c13,0,25,7,25,20C58,68,47,77,30,77z"/>
<path d="M67,141l12-21l12-21l12,21l12,21H96v31l33-23l-19-33L91,83l-19,33l-19,33l33,23v-31H67z M137,246c-4,0-8-1-8-5v-3h1l7,2
	c3,0,5-1,5-2c0-2-1-3-5-3c-2,0-3-1-3-3v-1l3-1c4,0,4-1,4-3c0-1-1-2-4-2l-7,2h-1v-3c0-2,3-5,10-5c5,0,9,3,9,8c0,3-2,5-4,5
	c2,1,4,3,4,6C148,243,144,246,137,246z M162,219c-6,0-10,4-10,14c0,9,5,13,10,13c8,0,11-5,11-14S168,219,162,219z M162,240
	c-2,0-3-1-3-8c0-6,1-7,3-7c3,0,4,1,4,7C166,239,165,240,162,240z"/>
</svg>
