<svg viewBox="0 0 199 273">
  <rect width="198" height="272" fill="#fff" stroke="#dadada" data-name="Rectangle 17" rx="15" transform="translate(1 1)"/>
  <path d="M87 113l21 12 20 12-20 12-21 12v-19H56l23 33 33-19 33-19-33-19-33-19-23 33h31z" class="cls-2" data-name="Path 85"/>
  <path d="M47 85c-5 0-10-4-10-10V36l-6 2a14 14 0 0 1-4 1c-4 0-7-2-7-5l-1-7 17-7a27 27 0 0 1 11-2c4 0 9 3 9 8v59h-9z" class="cls-2" data-name="Path 86"/>
  <path d="M179 256a4 4 0 0 1-4-4v-15l-3 1a4 4 0 0 1-1 0c-2 0-3-1-3-2l-1-2 7-3a10 10 0 0 1 4-1 3 3 0 0 1 4 3v23z" class="cls-2" data-name="Path 87"/>
</svg>
