<svg viewBox="0 0 468 468">
  <path d="M93 293l-1 1a47 47 0 0 1-7 3 6 6 0 0 1-3 0l-5 3-4 1a27 27 0 0 1-4 1l-5 2-4 1a48 48 0 0 1-5 2v109l5-1v-1l11-2 1-1 11-3 11-3 10-3 2-1 9-3 2-1 9-3a10 10 0 0 1 2-1l8-4 3-1 8-3 4-2 7-3 4-2 6-3 4-3 7-3 4-2 6-4 4-2a79 79 0 0 1 7-4 13 13 0 0 0 3-2l8-5 1-2 9-6A483 483 0 0 0 412 72l3-11v-1l1-5H307A379 379 0 0 1 93 293z" class="cls-1" data-name="Path 6"/>
  <path d="M80 80a175 175 0 0 1-25 21v109A288 288 0 0 0 210 55H101a175 175 0 0 1-21 25z" class="cls-1" data-name="Path 13"/>
</svg>
