<svg version="1" viewBox="0 0 361 361">
  <path d="M1220 290c42-66 42-151 0-217l-31 32c26 48 26 105 0 153l31 32zm-95 32c-48 26-105 26-153 0l-32 31c66 42 150 42 216 0l-31-31zM908 105l-32-32c-42 66-42 151 0 217l32-32c-26-48-26-105 0-153zm29 29c-13 30-13 65 0 95l34-34c-2-9-2-18 0-27l-34-34zm222 94c13-30 13-64 0-94l-33 33c2 9 2 19 0 28l33 33zm-97 31c-9 2-18 2-27 0l-34 33c30 13 65 13 95 0l-34-33zM0 319V205c71 28 128 85 157 156H43c-12-16-26-31-43-42zm255 42h106A481 481 0 0 0 0 0v107a376 376 0 0 1 255 254z"/>
</svg>
