<svg viewBox="0 0 468 468">
  <path d="M293 375l1 1a47 47 0 0 1 3 7 6 6 0 0 1 0 2l3 6 1 4a27 27 0 0 1 1 4l2 5 1 3a48 48 0 0 1 2 6h109l-1-6h-1l-2-11h-1l-3-11-3-11a1 1 0 0 1 0-1l-3-10-1-1-3-9-1-2-3-9a10 10 0 0 1-1-3l-4-8-1-3-3-7-2-4-3-7-2-4-3-7-3-4-3-6-2-4-4-7-2-3a79 79 0 0 1-4-7 13 13 0 0 0-2-3l-5-8-2-2c-2-2-3-6-6-8v-1A483 483 0 0 0 72 56l-11-3h-1l-5-1v108a379 379 0 0 1 238 215z" class="cls-1" data-name="Path 6"/>
  <path d="M80 388a175 175 0 0 1 21 25h109A288 288 0 0 0 55 258v109a175 175 0 0 1 25 21z" class="cls-1" data-name="Path 13"/>
</svg>
