<svg viewBox="0 0 1401 372">
  <path d="M1 201l5-3 6-4a18 18 0 0 0 2-1 18 18 0 0 1 2-1l12-8h1l12-7a1 1 0 0 0 1 0 1 1 0 0 1 1-1A1325 1325 0 0 1 935 22h1l15 3 14 2a16 16 0 0 1 3 1 16 16 0 0 0 3 0l13 3 12 3a27 27 0 0 1 7 1l2 1a218 218 0 0 0 22 5l5 1 5 2 12 3 9 2 6 2 6 2 9 2 10 3 6 2 6 2 10 3a184 184 0 0 1 21 8l12 4 7 3a41 41 0 0 0 6 2 41 41 0 0 1 5 2l10 4 11 4a29 29 0 0 1 4 2 29 29 0 0 0 5 1l22 9a29 29 0 0 0 7 3l12 6 11 5 2 1h1l2 1 25 12a4 4 0 0 0 2 1 4 4 0 0 1 1 0l9 5 17 8a3 3 0 0 0 2 1l9 5 18 10 18 10 10 6h1l13 8 13 8h1a77 77 0 0 1 7 4 77 77 0 0 0 7 4l-54 55-16-9-27-15a3 3 0 0 1-2-1l-17-9-9-4a4 4 0 0 0-1-1 4 4 0 0 1-2 0c-8-5-17-9-25-12l-3-1-2-1-11-5-12-6a29 29 0 0 1-7-3l-22-9a29 29 0 0 1-5-1 29 29 0 0 0-4-2l-11-4-10-4a41 41 0 0 0-5-2 41 41 0 0 1-6-2l-9-4-4-1-6-2-6-2-5-2-10-4-10-3-6-2-6-2-10-3-9-3-6-1-6-2-9-2-12-4-5-1-5-1a218 218 0 0 1-22-6h-2a27 27 0 0 0-7-1l-12-3-13-3a16 16 0 0 1-3 0 16 16 0 0 0-3-1 370 370 0 0 1-29-5h-1A1334 1334 0 0 0 55 255z" class="cls-1" data-name="Subtraction 1"/>
  <g data-name="decoration-shape-3">
    <path d="M1 317l5-3 6-4a18 18 0 0 0 2-1 18 18 0 0 1 2-1l12-8h1l12-7a1 1 0 0 0 1 0 1 1 0 0 1 1-1 1325 1325 0 0 1 892-154h1l15 3 14 2a16 16 0 0 1 3 1 16 16 0 0 0 3 0l13 3 12 3a27 27 0 0 1 7 1l2 1a218 218 0 0 0 22 5l5 1 5 2 12 3 9 2 6 2 6 2 9 2 10 3 6 2 6 2 10 3a184 184 0 0 1 21 8l12 4 7 3a41 41 0 0 0 6 2 41 41 0 0 1 5 2l10 4 11 4a29 29 0 0 1 4 2 29 29 0 0 0 5 1l22 9a29 29 0 0 0 7 3l12 6 11 5 2 1h1l2 1 25 12a4 4 0 0 0 2 1 4 4 0 0 1 1 0l9 5 17 8a3 3 0 0 0 2 1l9 5 18 10 18 10 10 6h1l13 8 13 8h1a77 77 0 0 1 7 4 77 77 0 0 0 7 4l-54 55-16-9-27-15a3 3 0 0 1-2-1l-17-9-9-4a4 4 0 0 0-1-1 4 4 0 0 1-2 0c-8-5-17-9-25-12l-3-1-2-1-11-5-12-6a29 29 0 0 1-7-3l-22-9a29 29 0 0 1-5-1 29 29 0 0 0-4-2l-11-4-10-4a41 41 0 0 0-5-2 41 41 0 0 1-6-2l-9-4-4-1-6-2-6-2-5-2-10-4-10-3-6-2-6-2-10-3-9-3-6-1-6-2-9-2-12-4-5-1-5-1a218 218 0 0 1-22-6h-2a27 27 0 0 0-7-1l-12-3-13-3a16 16 0 0 1-3 0 16 16 0 0 0-3-1 370 370 0 0 1-29-5h-1A1334 1334 0 0 0 55 371z" class="cls-1" data-name="Subtraction 1"/>
  </g>
</svg>
