<svg viewBox="0 0 48 48">
  <g data-name="Group 6">
    <path fill="#009640" d="M24 48a23 23 0 0 1-6-1 24 24 0 0 1-6-2 24 24 0 0 1-9-9 24 24 0 0 1-2-6 24 24 0 0 1 0-12 24 24 0 0 1 2-6 24 24 0 0 1 9-9 24 24 0 0 1 6-2 24 24 0 0 1 15 1 24 24 0 0 1 13 13 24 24 0 0 1 1 15 24 24 0 0 1-2 6 24 24 0 0 1-9 9 24 24 0 0 1-6 2 23 23 0 0 1-6 1zm12-34H13a1 1 0 0 0-1 0 1 1 0 0 0 0 1v3l12 6 12-6v-3a1 1 0 0 0 0-1zM19 24l-7-4v11zm9 1h-1l-2 2a1 1 0 0 1-1 0l-3-2-9 8v1a2 2 0 0 0 1 0h22zm8-5l-6 4h-1l7 7V20z" data-name="Path 16"/>
  </g>
</svg>
