<svg viewBox="0 0 64 64">
  <g data-name="Group 13">
    <path d="M13 49l-4-4a8 8 0 0 1-2-5V24a3 3 0 0 0-2-2 3 3 0 0 0-4 2v20a11 11 0 0 0 2 6l2 3 6 8 1 2h15l-2-9a17 17 0 0 0-8-11l-4-3a3 3 0 0 0-4 0 3 3 0 0 0 0 5l6 6" class="cls-1" data-name="Path 51"/>
    <path d="M50 49l4-4a8 8 0 0 0 2-5V24a3 3 0 0 1 3-2 3 3 0 0 1 3 2v20a11 11 0 0 1-2 6l-2 3-5 8-2 2H37l2-9a17 17 0 0 1 7-11l4-3a3 3 0 0 1 4 0 3 3 0 0 1 0 5l-6 6" class="cls-1" data-name="Path 52"/>
  </g>
  <g data-name="Group 14">
    <path d="M35 26a5 5 0 0 1 2-2h4v-2h3v2h4a5 5 0 0 1 3 5v2h-7z" class="cls-2" data-name="Path 53"/>
    <path d="M29 26a5 5 0 0 0-2-2h-3v-2h-4v2h-3a5 5 0 0 0-4 5v2h7z" class="cls-2" data-name="Path 54"/>
  </g>
  <path fill="#78d2fa" d="M30 26l-5 1a6 6 0 0 0-5 6v5h24v-5a6 6 0 0 0-5-6l-4-1" data-name="Path 55"/>
  <path fill="#ffb487" d="M35 23v3l-3 6-3-6v-3" data-name="Path 56"/>
  <path d="M38 15v3a6 6 0 0 1-6 6 6 6 0 0 1-6-6v-3" class="cls-1" data-name="Path 57"/>
  <path fill="#bebebe" d="M32 8a6 6 0 0 0-6 6v2h3a7 7 0 0 0 5-3l4 3v-2a6 6 0 0 0-6-6z" data-name="Path 58"/>
  <path d="M26 17v-1a4 4 0 0 0-5-4 4 4 0 0 0-4 4v1h3a10 10 0 0 0 5-1" class="cls-6" data-name="Path 59"/>
  <path d="M26 16v3a4 4 0 0 1-5 4 4 4 0 0 1-4-4v-3" class="cls-1" data-name="Path 60"/>
  <path d="M39 17v-1a4 4 0 0 1 4-4 4 4 0 0 1 4 4v1h-3a10 10 0 0 1-5-1" class="cls-6" data-name="Path 61"/>
  <path d="M39 16v3a4 4 0 0 0 4 4 4 4 0 0 0 4-4v-3" class="cls-1" data-name="Path 62"/>
  <path d="M12 59a1 1 0 1 0-2 2l2 2a1 1 0 1 0 2-1z" data-name="Path 63"/>
  <path d="M26 53a18 18 0 0 0-8-12l-4-3a4 4 0 0 0-6 1V24a4 4 0 0 0-6-4 4 4 0 0 0-2 4v19a12 12 0 0 0 2 7l2 3a2 2 0 0 0 3-1l-3-3a10 10 0 0 1-2-6V24a2 2 0 1 1 4 0v15a9 9 0 0 0 2 6l3 3 1 1 2 2a1 1 0 1 0 2-1l-3-4-3-3a2 2 0 0 1 0-2 2 2 0 0 1 3-1l4 3a16 16 0 0 1 7 10l2 10a1 1 0 1 0 2-1z" data-name="Path 64"/>
  <path d="M9 56a1 1 0 0 0-2 2 1 1 0 0 0 2-2z" data-name="Path 65"/>
  <path d="M62 20a4 4 0 0 0-7 4v15a4 4 0 0 0-5-1l-5 3a18 18 0 0 0-7 12l-2 9a1 1 0 1 0 2 1l2-10a16 16 0 0 1 7-10l4-3a2 2 0 0 1 3 1 2 2 0 0 1 0 2l-6 7a1 1 0 1 0 1 1l6-6h1a9 9 0 0 0 2-6V24a2 2 0 1 1 3 0v19a10 10 0 0 1-2 6l-9 13a1 1 0 1 0 2 1l10-13a12 12 0 0 0 2-7V24a4 4 0 0 0-2-4z" data-name="Path 66"/>
  <path d="M44 40a1 1 0 0 0 1-2v-4h6a1 1 0 0 0 1-2v-2a6 6 0 0 0-4-6h-3v-1a6 6 0 0 0 3-4v-3a6 6 0 0 0-10-4 7 7 0 0 0-13 0 6 6 0 0 0-9 4v3a6 6 0 0 0 2 4v1h-2a6 6 0 0 0-5 6v2a1 1 0 0 0 2 2h5v4a1 1 0 0 0 2 2h7a2 2 0 0 0 0-3h-1v-2a2 2 0 1 0-3 0v2h-2v-3a5 5 0 0 1 4-5l3-1 3 5a1 1 0 0 0 1 1 1 1 0 0 0 1-1l2-5 4 1a5 5 0 0 1 4 5v3h-3v-2a1 1 0 1 0-2 0v2h-2a2 2 0 0 0 0 3zM28 25a6 6 0 0 0-1-1h-2v-1a6 6 0 0 0 1-1 7 7 0 0 0 2 2zm-10-6v-1h2a12 12 0 0 0 4-1v2a3 3 0 0 1-6 0zm9-1v-1h2a8 8 0 0 0 5-2l3 1v3a5 5 0 0 1-10-1zm9 7v-1a7 7 0 0 0 2-2 6 6 0 0 0 1 1v1h-2a6 6 0 0 0-1 1zm3-6v-2a12 12 0 0 0 4 1h2v1a3 3 0 1 1-6 0zm3-6a3 3 0 0 1 3 3h-2a9 9 0 0 1-4-1 3 3 0 0 1 3-2zm-15 1a5 5 0 0 1 9 0l-2-2a1 1 0 0 0-1 1 5 5 0 0 1-4 2h-2v-1zm-6-1a3 3 0 0 1 3 2 9 9 0 0 1-4 1h-2a3 3 0 0 1 3-3zm3 13a8 8 0 0 0-5 5h-5v-1a3 3 0 0 1 2-3l4-1a1 1 0 0 0 1-1v-1a5 5 0 0 0 1 0v1a1 1 0 0 0 1 1h2zm8 4l-2-4v-1a7 7 0 0 0 3 0v1zm7-4h1a1 1 0 0 0 1-1v-1a5 5 0 0 0 2 0v1a1 1 0 0 0 1 1l3 1a3 3 0 0 1 3 3v1h-6a8 8 0 0 0-5-5z" data-name="Path 67"/>
  <path d="M32 37a1 1 0 1 0 1 0 1 1 0 0 0-1 0z" data-name="Path 68"/>
  <path d="M32 4a1 1 0 0 0 1-1V1a1 1 0 0 0-2 0v2a1 1 0 0 0 1 1z" data-name="Path 69"/>
  <path d="M25 6a1 1 0 1 0 2-2l-1-1a1 1 0 1 0-2 1z" data-name="Path 70"/>
  <path d="M37 6a1 1 0 0 0 1 0l1-1a1 1 0 0 0-2-2l-1 1a1 1 0 0 0 1 2z" data-name="Path 71"/>
</svg>
