<svg viewBox="0 0 64 73">
  <g transform="translate(-32)">
    <circle cx="2" cy="2" r="2" fill="#ff4b4e" data-name="Ellipse 1" transform="translate(34 48)"/>
    <circle cx="2" cy="2" r="2" class="cls-2" data-name="Ellipse 2" transform="translate(44 23)"/>
    <circle cx="2" cy="2" r="2" fill="#00cdb3" data-name="Ellipse 3" transform="translate(73 19)"/>
    <g data-name="Group 10" transform="translate(52 8)">
      <circle cx="2" cy="2" r="2" class="cls-4" data-name="Ellipse 4" transform="translate(38 40)"/>
      <circle cx="2" cy="2" r="2" class="cls-4" data-name="Ellipse 5"/>
    </g>
    <path d="M91 36l-18-3-9-16a2 2 0 0 0-3 0l-8 16-19 3a2 2 0 0 0-1 4l13 12-3 19a2 2 0 0 0 3 2l17-9 17 9a2 2 0 0 0 2-2l-3-19 13-12a2 2 0 0 0-1-4z" class="cls-2" data-name="Path 35"/>
    <g data-name="Group 11">
      <path d="M59 30l6-14a2 2 0 0 0-3 0l-9 16h3a4 4 0 0 0 3-2z" class="cls-5" data-name="Path 36"/>
      <path d="M48 69l2-16a4 4 0 0 0 0-3L38 38a2 2 0 0 1 0-3l-4 1a2 2 0 0 0-1 3l13 13-3 18a2 2 0 0 0 3 2l2-1a2 2 0 0 1 0-2z" class="cls-5" data-name="Path 37"/>
    </g>
    <g data-name="Group 12" transform="translate(32)">
      <path d="M48 52l13-12a3 3 0 0 0-2-5l-8-2a2 2 0 0 0-1 3l8 1a1 1 0 0 1 1 1L46 51a1 1 0 0 0 0 1l3 18a1 1 0 0 1-2 1l-16-9a1 1 0 0 0-1 0l-16 9a1 1 0 0 1-1-1l3-18a1 1 0 0 0 0-1L3 38a1 1 0 0 1 0-1l18-3a1 1 0 0 0 1 0l8-17a1 1 0 0 1 2 0l8 17a1 1 0 0 0 1 0l6 1a1 1 0 0 0 0-2l-6-1-7-16a3 3 0 0 0-6 0l-8 16-17 3a3 3 0 0 0-2 5l13 12-3 17a3 3 0 0 0 3 4l17-8 15 8a3 3 0 0 0 5-4z" class="cls-6" data-name="Path 38"/>
      <path d="M55 28c6 0 4-6 6-8a1 1 0 0 0-2-1 8 8 0 0 0-1 3c-1 3-1 3-3 3l-6 2a4 4 0 0 0-1 2h3s0-2 4-1z" class="cls-6" data-name="Path 39"/>
      <path d="M37 13v2c2 0 3-2 2-6-1-2-1-2 1-3 2 0 4-1 3-5a1 1 0 1 0-2 0c0 2 0 3-2 3-1 1-4 2-2 6v3z" class="cls-6" data-name="Path 40"/>
      <path d="M7 12c2 0 2 0 2 2-1 5 4 7 4 5a1 1 0 0 0-1-2l-1-3c1-4-2-4-3-4-2-1-3-1-3-3a1 1 0 1 0-2 0c0 4 3 4 4 5z" class="cls-6" data-name="Path 41"/>
      <path d="M11 28a3 3 0 1 0 2-6 3 3 0 0 0-2 6zm2-3a1 1 0 1 1 0 1 1 1 0 0 1 0-1z" class="cls-6" data-name="Path 42"/>
      <path d="M41 23a3 3 0 1 0 2-6 3 3 0 0 0-2 6zm2-1a1 1 0 1 1 1-2 1 1 0 0 1-1 2z" class="cls-6" data-name="Path 43"/>
      <path d="M6 48a3 3 0 1 0-2 6 3 3 0 0 0 2-6zm-2 3a1 1 0 1 1 1-1 1 1 0 0 1-1 1z" class="cls-6" data-name="Path 44"/>
      <path d="M60 47a3 3 0 1 0 3 6 3 3 0 0 0-3-6zm0 4a1 1 0 1 1 1-1 1 1 0 0 1-1 1z" class="cls-6" data-name="Path 45"/>
      <path d="M22 13a3 3 0 1 0-2-1 3 3 0 0 0 2 1zm0-4a1 1 0 1 1-1 1 1 1 0 0 1 1-1z" class="cls-6" data-name="Path 46"/>
      <circle cx="2" cy="2" r="2" class="cls-6" data-name="Ellipse 6" transform="translate(3 21)"/>
      <circle cx="2" cy="2" r="2" class="cls-6" data-name="Ellipse 7" transform="translate(53 52)"/>
      <circle cx="2" cy="2" r="2" class="cls-6" data-name="Ellipse 8" transform="translate(4 61)"/>
      <path d="M51 21l2-2a1 1 0 1 0-1-1l-2 1a1 1 0 0 0 1 2z" class="cls-6" data-name="Path 47"/>
      <path d="M16 20l3 1a1 1 0 1 0 0-2l-2-1a1 1 0 1 0-1 2z" class="cls-6" data-name="Path 48"/>
      <path d="M9 56l-2-1a1 1 0 1 0-1 2l2 1a1 1 0 0 0 1-2z" class="cls-6" data-name="Path 49"/>
      <path d="M58 60l-3-1a1 1 0 0 0 0 2l2 1a1 1 0 0 0 1-2z" class="cls-6" data-name="Path 50"/>
    </g>
  </g>
</svg>
