<svg version="1" viewBox="0 0 466 467">
  <path d="M268 233c0 19-16 35-35 35s-34-16-34-35a34 34 0 0 1 69 0zM467 50l-59 59-19-3-107 108c-6-13-16-24-29-29L360 77l-2-18 58-59 6 44 45 6z" class="st0"/>
  <path fill="#009ee2" d="M214 185c-13 5-24 16-29 29L77 106l-18 3L0 50l44-6 6-44 59 59-3 18 108 108z"/>
  <path fill="#fab900" d="M106 389l3 19-59 58-6-44-44-6 59-58 18 2 108-107c5 13 16 23 29 29L106 389z"/>
  <path fill="#009540" d="M467 416l-45 6-6 45-58-59 2-19-107-107c13-6 23-16 29-29l107 107 19-2 59 58z"/>
  <path d="M405 342a203 203 0 0 0 0-217l-31 32a159 159 0 0 1 0 153l31 32zm-95 32a159 159 0 0 1-153 0l-32 31a202 202 0 0 0 216 0l-31-31zM93 157l-32-32a202 202 0 0 0 0 217l32-32a159 159 0 0 1 0-153zm64-64a159 159 0 0 1 153 0l31-32a203 203 0 0 0-216 0l32 32zm-35 93a120 120 0 0 0 0 95l34-34a78 78 0 0 1 0-27l-34-34zm222 94a120 120 0 0 0 0-94l-33 33a79 79 0 0 1 0 28l33 33zm-97 31a78 78 0 0 1-27 0l-34 33a120 120 0 0 0 95 0l-34-33zm-27-155a79 79 0 0 1 27 0l33-34a120 120 0 0 0-94 0l34 34z" class="st4"/>
</svg>
